<?xml version="1.0" encoding="iso-8859-1"?>
<!-- Generator: Adobe Illustrator 16.0.0, SVG Export Plug-In . SVG Version: 6.00 Build 0)  -->
<!DOCTYPE svg PUBLIC "-//W3C//DTD SVG 1.1//EN" "http://www.w3.org/Graphics/SVG/1.1/DTD/svg11.dtd">
<svg version="1.1" id="Layer_1" xmlns="http://www.w3.org/2000/svg" xmlns:xlink="http://www.w3.org/1999/xlink" x="0px" y="0px"
	 width="240px" height="155px" viewBox="0 0 240 155" style="enable-background:new 0 0 240 155;" xml:space="preserve">
<g>
	<polygon style="fill:#343434;" points="87.947,9.018 87.947,114.73 118.151,103.303 118.151,31.874 	"/>
	<polygon style="fill:#343434;" points="122.437,31.67 122.437,103.506 151.824,114.73 151.824,9.018 	"/>
	<g>
		<path style="fill:#343434;" d="M100.627,143.191c0,1.426-0.713,2.138-2.138,2.138h-9.342v-23.393h9.282
			c1.385,0,2.078,0.718,2.078,2.152v6.024c0,0.797-0.25,1.415-0.748,1.853c-0.07,0.061-0.678,0.444-1.823,1.151
			c1.186,0.728,1.813,1.126,1.883,1.196c0.538,0.469,0.807,1.111,0.807,1.928V143.191z M97.025,130.546v-5.665h-4.379v6.861h2.69
			L97.025,130.546z M97.115,142.385v-6.667l-1.719-1.136h-2.75v7.803H97.115z"/>
		<path style="fill:#343434;" d="M126.157,125.031h-3.856v20.298h-3.483v-20.298h-3.855l-1.225-3.095h13.645L126.157,125.031z"/>
		<path style="fill:#343434;" d="M151.762,143.191c0,1.426-0.708,2.138-2.122,2.138h-7.041c-1.404,0-2.107-0.712-2.107-2.138v-5.575
			h3.498v4.769h4.274v-4.589l-7.01-6.637c-0.508-0.488-0.763-1.111-0.763-1.868v-5.202c0-1.435,0.703-2.152,2.107-2.152h7.041
			c1.414,0,2.122,0.708,2.122,2.123v5.231h-3.498v-4.41h-4.274v4.23l7.01,6.606c0.509,0.479,0.763,1.111,0.763,1.898V143.191z"/>
	</g>
</g>
<rect x="7.382" y="243.673" style="fill:none;stroke:#343434;stroke-miterlimit:10;" width="240" height="155"/>
<rect x="-159.5" y="-36" style="fill:#443382;" width="66.667" height="106.667"/>
</svg>
