<?xml version="1.0" encoding="iso-8859-1"?>
<!-- Generator: Adobe Illustrator 16.0.0, SVG Export Plug-In . SVG Version: 6.00 Build 0)  -->
<!DOCTYPE svg PUBLIC "-//W3C//DTD SVG 1.1//EN" "http://www.w3.org/Graphics/SVG/1.1/DTD/svg11.dtd">
<svg version="1.1" id="Layer_1" xmlns="http://www.w3.org/2000/svg" xmlns:xlink="http://www.w3.org/1999/xlink" x="0px" y="0px"
	 width="240px" height="155px" viewBox="0 0 240 155" style="enable-background:new 0 0 240 155;" xml:space="preserve">
<g>
	<polygon style="fill:#6F27E1;" points="87.947,9.018 87.947,114.73 118.151,103.303 118.151,31.874 	"/>
	<polygon style="fill:#6F27E1;" points="122.438,31.67 122.438,103.506 151.824,114.73 151.824,9.018 	"/>
	<g>
		<path style="fill:#6F27E1;" d="M100.627,143.191c0,1.426-0.713,2.138-2.138,2.138h-9.342v-23.394h9.282
			c1.385,0,2.078,0.719,2.078,2.152v6.023c0,0.798-0.25,1.416-0.748,1.854c-0.07,0.061-0.678,0.444-1.823,1.151
			c1.186,0.728,1.813,1.126,1.883,1.196c0.538,0.469,0.807,1.11,0.807,1.928L100.627,143.191L100.627,143.191z M97.025,130.546
			v-5.665h-4.379v6.861h2.69L97.025,130.546z M97.115,142.385v-6.667l-1.719-1.136h-2.75v7.803H97.115L97.115,142.385z"/>
		<path style="fill:#6F27E1;" d="M126.157,125.031h-3.856v20.298h-3.483v-20.298h-3.855l-1.225-3.096h13.645L126.157,125.031z"/>
		<path style="fill:#6F27E1;" d="M151.762,143.191c0,1.426-0.707,2.138-2.121,2.138H142.6c-1.404,0-2.107-0.712-2.107-2.138v-5.575
			h3.498v4.769h4.273v-4.589l-7.01-6.637c-0.508-0.488-0.763-1.111-0.763-1.868v-5.202c0-1.435,0.702-2.151,2.106-2.151h7.041
			c1.414,0,2.123,0.707,2.123,2.123v5.23h-3.498v-4.41h-4.275v4.23l7.011,6.605c0.509,0.479,0.763,1.111,0.763,1.898V143.191z"/>
	</g>
</g>
<rect x="7.382" y="243.673" style="fill:none;stroke:#343434;stroke-miterlimit:10;" width="240" height="155"/>
<rect x="-159.5" y="-36" style="fill:#443382;" width="66.667" height="106.667"/>
<image style="overflow:visible;" width="1788" height="4771" xlink:href="../../../../&#xC6F9; &#xCEA1;&#xCC98;_21-6-2022_175254_blomma.qodeinteractive.com.jpeg"  transform="matrix(0.1412 0 0 0.1412 -327.9609 -206.2085)">
</image>
</svg>
