<?xml version="1.0" encoding="iso-8859-1"?>
<!-- Generator: Adobe Illustrator 16.0.0, SVG Export Plug-In . SVG Version: 6.00 Build 0)  -->
<!DOCTYPE svg PUBLIC "-//W3C//DTD SVG 1.1//EN" "http://www.w3.org/Graphics/SVG/1.1/DTD/svg11.dtd">
<svg version="1.1" id="Layer_1" xmlns="http://www.w3.org/2000/svg" xmlns:xlink="http://www.w3.org/1999/xlink" x="0px" y="0px"
	 width="240px" height="155px" viewBox="0 0 240 155" style="enable-background:new 0 0 240 155;" xml:space="preserve">
<g>
	<path style="fill-rule:evenodd;clip-rule:evenodd;fill:#343434;" d="M109.471,35.956c0,8.166,0,15.972,0,23.778
		c-0.271,0.066-0.54,0.132-0.81,0.198c-0.309-0.947-0.658-1.883-0.92-2.843c-1.82-6.663-4.219-12.917-10.34-17.017
		c-12.849-8.604-30.5-3.197-36.194,11.139c-2.475,6.232-3.317,12.769-3.673,19.387c-0.61,11.332-0.426,22.606,3.627,33.424
		c3.746,9.995,10.506,14.645,21.109,14.723c7.222,0.054,7.248,0.064,9.981-6.458c10.314-24.623,20.61-49.252,30.908-73.88
		c0.244-0.583,0.428-1.191,0.783-2.194c-3.031,0-5.767,0-8.502,0c-0.077-0.294-0.155-0.587-0.232-0.881
		c0.651-0.293,1.301-0.836,1.956-0.84c8.525-0.057,17.05-0.057,25.576,0.004c0.633,0.004,1.264,0.58,1.898,0.89
		c-0.09,0.305-0.18,0.61-0.27,0.915c-1.846,0-3.709,0.173-5.529-0.044c-2.135-0.255-3.146,0.597-3.908,2.526
		c-7.482,18.936-14.937,37.883-22.625,56.734c-2.774,6.802-6.157,13.353-9.261,20.02c-0.426,0.913-0.844,1.831-1.381,2.997
		c18,0,35.777,0,54.01,0c-11.373-4.731-18.945-12.918-23.447-23.68c-9.59-22.917,2.029-51.602,26.373-58.905
		c7.672-2.302,15.234-2.233,22.654,1.074c1.357,0.605,2.783,1.066,4.203,1.513c2.248,0.707,4.373,0.681,6.305-0.998
		c0.607-0.528,1.521-0.701,2.459-1.108c0,8.038,0,15.636,0,23.234c-0.219,0.066-0.438,0.133-0.658,0.199
		c-0.32-0.854-0.691-1.691-0.957-2.563c-1.547-5.085-3.162-10.068-6.779-14.239c-8.895-10.254-33.83-10.827-40.199,9.052
		c-1.631,5.092-2.867,10.473-3.189,15.788c-0.688,11.364-0.926,22.788,2.561,33.884c3.547,11.298,10.789,16.575,21.791,17.032
		c15.682,0.654,22.334-7.26,26.904-20.99c0.434-1.299,0.854-2.602,1.279-3.903c0.283,0.063,0.568,0.126,0.852,0.189
		c0,8.686,0,17.369,0,26.444c-1.08,0-2.262,0-3.439,0c-35.693,0-71.389-0.166-107.08,0.082c-14.28,0.1-24.955-5.962-33.011-17.217
		C39.61,85.706,42.05,60.365,57.828,45.392c7.701-7.309,16.906-11.362,27.59-10.834c4.076,0.201,8.066,1.958,12.114,2.924
		c2.325,0.555,4.716,1.399,7.023,1.256C106.135,38.64,107.622,37.063,109.471,35.956z"/>
</g>
</svg>
