<?xml version="1.0" encoding="iso-8859-1"?>
<!-- Generator: Adobe Illustrator 16.0.0, SVG Export Plug-In . SVG Version: 6.00 Build 0)  -->
<!DOCTYPE svg PUBLIC "-//W3C//DTD SVG 1.1//EN" "http://www.w3.org/Graphics/SVG/1.1/DTD/svg11.dtd">
<svg version="1.1" id="Layer_1" xmlns="http://www.w3.org/2000/svg" xmlns:xlink="http://www.w3.org/1999/xlink" x="0px" y="0px"
	 width="240px" height="155px" viewBox="0 0 240 155" style="enable-background:new 0 0 240 155;" xml:space="preserve">
<g>
	<path style="fill-rule:evenodd;clip-rule:evenodd;fill:#343434;" d="M122.311,82.586c-3.811,2.889-8.271,4.895-12.88,6.566
		c-7.133,2.588-14.476,3.801-22.063,2.795c-2.776-0.367-5.31-1.443-7.396-3.391c-3.355-3.133-3.887-7.489-1.209-11.566
		c1.188-1.81,2.762-3.364,4.152-5.041c0.483-0.583,0.902-1.225,1.426-1.766c0.35-0.362,0.813-0.63,1.26-0.88
		c4.225-2.366,8.457-4.72,12.62-7.307c-0.645,0.193-1.306,0.342-1.931,0.586c-5.993,2.339-11.977,4.705-17.973,7.036
		c-0.862,0.335-1.771,0.68-2.675,0.732c-0.564,0.033-1.16-0.471-1.741-0.734c0.316-0.463,0.528-1.106,0.966-1.36
		c5.737-3.333,11.447-6.719,17.285-9.867c4.837-2.608,9.836-4.918,14.763-7.362c0.159-0.079,0.307-0.179,0.369-0.502
		c-0.28,0.077-0.574,0.121-0.836,0.236c-7.706,3.364-15.407,6.737-23.111,10.105c-4.714,2.061-9.373,4.226-13.633,7.153
		C63.1,72.554,56.53,77.135,49.879,81.596c-3.661,2.455-7.46,4.705-11.198,7.043c-0.206,0.129-0.423,0.338-0.635,0.338
		c-0.43,0.002-1.033,0.031-1.243-0.221c-0.212-0.256-0.218-0.998,0.002-1.242c0.89-0.99,1.841-1.945,2.878-2.779
		c8.011-6.438,16.653-11.936,25.782-16.604c7.218-3.692,13.79-8.294,20.189-13.188c1.538-1.175,2.924-2.552,4.342-3.878
		c0.484-0.453,0.849-1.034,1.494-1.838c-0.797-0.044-1.27-0.178-1.682-0.075c-3.058,0.764-6.15,1.434-9.141,2.413
		c-3.146,1.03-6.229,2.28-9.269,3.597c-3.896,1.688-7.806,3.377-11.559,5.353C51.318,65,42.886,69.656,34.429,74.263
		c-0.647,0.353-1.225,0.585-1.656-0.175c-0.499-0.877,0.269-1.085,0.834-1.395c4.793-2.62,9.556-5.298,14.381-7.859
		c4.038-2.144,8.093-4.269,12.237-6.194c5.28-2.453,10.581-4.895,16.017-6.965c4.295-1.636,8.794-2.748,13.23-3.994
		c1.087-0.306,2.469-0.633,3.215,0.615c0.715,1.197-0.195,2.279-0.964,3.003c-2.26,2.129-4.66,4.112-7.032,6.121
		c-0.916,0.775-1.905,1.463-2.861,2.19c0.053,0.095,0.106,0.19,0.16,0.286c0.316-0.163,0.625-0.346,0.951-0.487
		c6.867-2.965,13.709-5.99,20.612-8.867c6.123-2.552,12.293-4.99,18.48-7.381c4.902-1.896,9.857-3.656,14.807-5.427
		c0.344-0.123,0.834,0.167,1.256,0.265c-0.181,0.414-0.26,0.946-0.569,1.212c-0.413,0.355-0.997,0.518-1.52,0.736
		c-7.24,3.027-14.558,5.882-21.702,9.123c-6.59,2.99-13.025,6.33-19.466,9.638c-4.208,2.161-8.305,4.539-12.448,6.825
		c-0.201,0.111-0.377,0.266-0.468,0.664c1.022-0.349,2.05-0.681,3.064-1.05c6.987-2.543,13.964-5.114,20.963-7.624
		c1.481-0.531,3.038-0.852,4.563-1.259c0.596-0.159,1.38-0.369,1.455,0.478c0.043,0.489-0.407,1.242-0.854,1.509
		c-1.033,0.617-2.203,1.005-3.312,1.499c-0.215,0.096-0.403,0.253-0.544,0.64c0.453-0.133,0.919-0.233,1.356-0.405
		c6.023-2.366,12.066-4.684,18.051-7.144c2.345-0.964,4.467-2.511,6.847-3.342c5.11-1.784,10.313-3.314,15.503-4.868
		c2.089-0.626,4.255-0.995,6.357-1.585c0.566-0.159,1.136-0.615,1.514-1.087c2.174-2.716,4.275-5.49,6.432-8.221
		c0.885-1.121,1.608-1.075,2.236,0.24c0.677,1.419,1.219,2.911,1.713,4.406c0.298,0.903,0.667,1.272,1.663,0.946
		c1.762-0.576,3.546-1.087,5.341-1.551c2.385-0.617,4.781-1.205,7.194-1.701c0.445-0.092,0.992,0.31,1.492,0.483
		c-0.198,0.477-0.274,1.093-0.623,1.402c-0.656,0.583-1.474,0.986-2.218,1.471c-0.313,0.204-0.615,0.426-1.191,0.828
		c0.661,0.104,0.961,0.187,1.262,0.193c5.408,0.119,10.625,1.273,15.594,3.303c1.806,0.738,3.506,2.068,4.856,3.504
		c2.188,2.326,1.893,5.123,0.549,7.816c-2.212,4.43-5.722,7.692-9.694,10.503c-6.808,4.818-14.282,8.4-21.868,11.779
		c-1.612,0.717-3.197,1.494-4.824,2.258c1.086,1.152,1.382,1.17,2.288,0.215c2.13-2.244,5.11-2.259,7.163-0.066
		c0.815,0.87,1.121,1.869,0.89,3.012c-0.15,0.746,0.037,0.962,0.833,1.022c2.777,0.212,5.549,0.517,8.318,0.822
		c1.085,0.12,2.163,0.321,3.236,0.52c0.667,0.124,1.138,0.428,0.916,1.251c-0.216,0.803-0.756,0.844-1.418,0.676
		c-7.767-1.98-15.561-1.723-23.363-0.256c-2.544,0.479-5.085,0.98-7.615,1.533c-1.529,0.332-1.638,0.514-0.916,1.848
		c1.324,2.445,2.771,4.826,4.099,7.271c0.206,0.379,0.06,0.949,0.076,1.432c-0.387-0.15-0.922-0.188-1.133-0.469
		c-0.774-1.031-1.498-2.111-2.134-3.234c-0.835-1.473-1.588-2.996-2.337-4.516c-0.391-0.795-0.8-0.432-1.237-0.096
		c-1.022,0.787-2.034,1.592-3.065,2.369c-3.715,2.813-8.059,3.855-12.564,4.385c-0.434,0.053-1.045-0.23-1.325-0.566
		c-0.144-0.172,0.152-0.908,0.438-1.209c2.15-2.262,4.721-3.961,7.588-5.137c2.504-1.027,5.074-1.908,7.66-2.707
		c1.125-0.348,0.884-0.975,0.649-1.662c-0.235-0.693-0.337-1.404-1.543-1.109c-4.198,1.025-8.404,2.1-12.671,2.74
		c-3.97,0.596-7.973,0.129-11.562-1.855C124.705,85.08,123.649,83.768,122.311,82.586z M180.267,41.716
		c-2.192-0.404-4.383-0.169-6.425,1.095c-0.961,0.595-1.977,1.112-3.004,1.588c-0.856,0.397-0.863,0.881-0.285,1.483
		c1.652,1.718,3.347,3.397,4.961,5.151c0.343,0.373,0.417,0.995,0.613,1.502c-0.474,0.043-1.004,0.246-1.415,0.104
		c-4.33-1.492-8.776-2.192-13.354-2.244c-1.374-0.016-2.518,0.396-3.668,1.032c-2.905,1.605-5.82,3.192-8.756,4.742
		c-0.431,0.229-0.988,0.229-1.491,0.313c-0.495,0.083-1.046,0.026-1.485,0.225c-5.305,2.394-10.191,5.493-14.703,9.142
		c-1.967,1.59-3.676,3.503-5.45,5.32c-0.239,0.244-0.364,0.881-0.218,1.174c1.436,2.861,0.75,5.445-1.018,7.844
		c-0.627,0.85-0.598,1.432,0.062,2.221c1.823,2.178,4.329,2.952,6.952,3.342c6.39,0.949,12.453-0.791,18.516-2.446
		c0.751-0.206,0.631-0.661,0.44-1.226c-0.804-2.376-1.616-4.752-2.331-7.155c-0.16-0.538,0.063-1.19,0.11-1.79
		c0.446,0.385,0.956,0.719,1.317,1.172c0.266,0.33,0.353,0.811,0.489,1.232c0.658,2.041,1.337,4.074,1.947,6.13
		c0.343,1.153,1.17,0.813,1.718,0.474c0.838-0.519,2.503-0.021,2.388-1.795c-0.002-0.037-0.034-0.071-0.055-0.107
		c-0.416-0.728-0.16-1.366,0.535-1.553c0.308-0.082,0.976,0.439,1.172,0.838c0.364,0.742,0.683,0.932,1.484,0.576
		c4.069-1.796,8.195-3.469,12.245-5.309c6.229-2.83,12.354-5.876,18.021-9.741c3.931-2.68,7.528-5.695,9.918-9.959
		c1.742-3.109,1.59-6.108-0.933-8.246c-1.148-0.973-2.574-1.697-3.981-2.269C190.042,42.728,185.298,41.764,180.267,41.716z
		 M106.71,67.302c-0.651,0.051-1.798,0.039-2.904,0.247c-5.045,0.951-10.082,1.945-15.112,2.971
		c-0.856,0.174-1.774,0.412-2.48,0.893c-2.503,1.699-4.568,3.869-6.127,6.467c-2.232,3.717-1.754,7.055,1.43,9.76
		c1.707,1.447,3.796,2.357,5.985,2.434c3.946,0.139,7.931,0.199,11.85-0.195c4.384-0.441,8.676-1.619,12.679-3.533
		c3.056-1.46,5.997-3.162,8.984-4.766c0.726-0.389,0.975-0.977,0.83-1.82c-0.407-2.371-0.093-4.656,0.873-6.877
		c0.145-0.329-0.104-0.939-0.351-1.297c-0.235-0.342-0.688-0.553-1.073-0.771C116.92,68.338,112.146,67.465,106.71,67.302z
		 M96.146,66.852c0.052,0.152,0.105,0.304,0.158,0.455c0.382-0.062,0.768-0.109,1.147-0.19c3.847-0.811,7.702-1.453,11.666-1.155
		c4.98,0.375,9.784,1.3,14.031,4.13c0.58,0.387,0.948,0.271,1.463-0.201c2.552-2.352,5.149-4.651,7.753-6.945
		c0.246-0.217,0.633-0.273,0.955-0.404c-0.143-0.16-0.282-0.32-0.423-0.479c-0.259,0.069-0.524,0.12-0.776,0.212
		c-1.67,0.614-3.314,1.313-5.014,1.829c-1.103,0.335-2.284,0.527-3.434,0.54c-0.53,0.006-1.068-0.569-1.604-0.88
		c0.344-0.466,0.59-1.083,1.044-1.375c3.164-2.031,6.372-3.995,9.565-5.981c0.904-0.563,1.809-1.13,2.711-1.694
		c-0.293-0.22-0.502-0.275-0.666-0.212c-3.061,1.167-6.129,2.317-9.172,3.532c-4.244,1.694-8.469,3.439-12.702,5.162
		c-0.824,0.335-1.764,0.396-2.127-0.467c-0.376-0.895,0.611-1.147,1.233-1.484c1.603-0.865,3.205-1.732,4.807-2.598
		c-0.055-0.11-0.11-0.22-0.165-0.33C109.78,61.161,102.963,64.006,96.146,66.852z M149.717,50.989
		c-0.441-0.162-0.669-0.184-0.807-0.309c-0.295-0.268-0.544-0.587-0.812-0.885c0.337-0.229,0.649-0.508,1.017-0.669
		c0.242-0.106,0.559-0.031,0.842-0.056c1.688-0.151,3.289-1.582,3.765-3.498c-5.446,2.01-10.794,3.983-16.143,5.957
		c0.039,0.113,0.077,0.227,0.118,0.34c1.012-0.26,2.014-0.576,3.039-0.749c0.35-0.059,0.97,0.148,1.084,0.405
		c0.136,0.3-0.058,0.844-0.271,1.176c-0.207,0.319-0.604,0.532-0.948,0.74c-3.185,1.926-6.381,3.833-9.563,5.763
		c-1.488,0.901-2.955,1.839-4.432,2.761c0.068,0.142,0.135,0.283,0.203,0.425c1.32-0.433,2.679-0.775,3.953-1.314
		c5.104-2.154,10.16-4.424,15.282-6.533C147.762,53.836,148.584,52.44,149.717,50.989z M153.994,48.528
		c0.078,0.202,0.157,0.405,0.236,0.607c1.884-0.209,3.896-0.073,5.623-0.711c2.438-0.902,4.661-2.389,6.992-3.596
		c0.729-0.378,0.867-0.784,0.484-1.545c-0.398-0.79-0.98-0.885-1.704-0.748c-2.143,0.405-4.274,0.867-6.423,1.232
		C156.37,44.25,155.601,46.811,153.994,48.528z M162.356,84.998c0.257,0.066,0.337,0.111,0.41,0.102
		c3.213-0.361,6.427-0.725,9.638-1.096c1.126-0.129,1.679-1.529,0.945-2.525c-0.756-1.026-1.825-1.381-3.102-1.281
		c-1.242,0.096-2.027,0.733-2.484,1.83c-0.855,2.055-0.786,1.98-2.544,0.619c-0.578-0.447-1.595-0.611-2.341-0.485
		c-0.886,0.149-0.621,1.05-0.53,1.733C162.396,84.243,162.356,84.604,162.356,84.998z M158.897,41.916
		c0.388,0.139,0.514,0.235,0.603,0.208c1.97-0.596,3.939-1.193,5.896-1.83c0.211-0.068,0.519-0.432,0.48-0.583
		c-0.376-1.49-0.751-2.992-1.77-4.551C162.268,37.544,160.616,39.686,158.897,41.916z M171.723,50.17
		c0.05-0.106,0.101-0.213,0.15-0.32c-0.451-0.5-0.902-1.001-1.356-1.5c-0.742-0.817-1.401-2.162-2.257-2.303
		c-0.901-0.149-1.998,0.843-2.999,1.358c-0.71,0.366-1.402,0.767-2.104,1.152c0.035,0.084,0.071,0.168,0.107,0.252
		C166.084,49.263,168.902,49.716,171.723,50.17z M150.337,89.994c-3.806,1.176-7.653,2.227-10.651,5.021
		C143.807,94.523,147.338,92.797,150.337,89.994z M160.455,85.559c-0.588-1.092-1.072-2.044-1.625-2.955
		c-0.074-0.121-0.681-0.123-0.723-0.031c-0.552,1.176-1.046,2.377-1.643,3.781C157.921,86.064,159.177,85.814,160.455,85.559z
		 M170.65,40.158c0.033,0.127,0.065,0.254,0.098,0.381c2.591,0.16,5.091-0.034,7.171-1.869c-0.031-0.124-0.063-0.249-0.095-0.373
		C175.434,38.917,173.042,39.538,170.65,40.158z M155.563,50.769c-2.554-0.867-4.666,0.333-5.02,2.69
		C152.188,52.577,153.755,51.738,155.563,50.769z M155.829,83.641c-3.09,0.327-3.438,1.01-1.729,3.088
		C154.707,85.645,155.268,84.642,155.829,83.641z M124.316,74.125c-0.138-0.017-0.275-0.033-0.412-0.049
		c-0.241,1.5-0.481,2.998-0.721,4.498C124.684,77.594,125.073,75.357,124.316,74.125z M171.559,42.251
		c-0.033-0.12-0.067-0.239-0.101-0.358c-0.691,0.062-1.393,0.068-2.063,0.218c-0.234,0.053-0.389,0.46-0.579,0.706
		c0.309,0.163,0.695,0.533,0.913,0.451C170.374,43.023,170.953,42.603,171.559,42.251z M132.652,53.646
		c-0.059-0.15-0.117-0.301-0.176-0.452c-1.297,0.519-2.594,1.038-3.891,1.556c0.043,0.11,0.086,0.22,0.131,0.33
		C130.027,54.603,131.34,54.125,132.652,53.646z"/>
	<path style="fill-rule:evenodd;clip-rule:evenodd;fill:#343434;" d="M172.071,104.943c1.464-1.34,2.918-2.465,4.854-2.754
		c0.31-0.045,0.542-0.477,0.856-0.646c1.162-0.623,2.3-1.328,3.531-1.766c0.739-0.262,0.926-0.496,0.87-1.25
		c-0.038-0.506,0.138-1.32,0.479-1.5c0.803-0.42,1.083,0.391,1.347,0.973c0.803,1.766,1.98,3.48,2.262,5.332
		c0.259,1.682,1.049,3.006,1.6,4.494c0.526,1.426,0.016,2.643-1.56,3.516c-0.971,0.537-2.085,0.859-3.172,1.123
		c-1.184,0.287-2.14-0.168-2.749-1.271c-0.135-0.242-0.305-0.488-0.517-0.66c-1.045-0.855-1.224-1.732-0.146-2.623
		c1.219-1.008,2.686-1.713,4.034-2.568c0.286-0.18,0.525-0.434,0.786-0.654c-0.375-0.104-0.81-0.383-1.114-0.279
		c-1.299,0.443-2.572,0.971-3.823,1.537c-0.256,0.117-0.464,0.506-0.544,0.811c-0.11,0.422,0.086,1.023-0.146,1.293
		c-0.428,0.5-1.071,0.813-1.626,1.203c-0.24-0.453-0.599-0.883-0.692-1.363c-0.166-0.863-0.119-1.766-0.264-2.635
		c-0.113-0.682-0.55-0.83-1.153-0.428c-0.701,0.469-1.442,0.879-2.131,1.363c-0.691,0.484-0.406,1.094-0.2,1.74
		c0.337,1.051,0.566,2.137,0.88,3.354c0.384-0.174,1.042-0.502,1.727-0.766c0.228-0.088,0.519-0.006,0.782-0.002
		c-0.029,0.256,0.01,0.547-0.1,0.762c-0.9,1.789-4.409,3.402-6.269,2.797c-0.443-0.145-0.834-0.697-1.072-1.156
		c-0.212-0.406-0.115-0.965-0.282-1.41c-0.079-0.213-0.452-0.316-0.691-0.471c-0.099,0.23-0.309,0.477-0.278,0.688
		c0.339,2.332-0.253,3.287-2.512,3.965c-2.101,0.633-3.734-0.082-4.614-2.002c-1.053-2.303-0.322-5.408,2.822-6.521
		c1.485-0.527,2.996-0.98,4.505-1.438c0.928-0.281,1.859-0.266,2.479-1.387C170.812,103.295,171.491,104.227,172.071,104.943z
		 M184.369,107.012c-0.406,0.258-1.088,0.66-1.731,1.115c-0.546,0.385-1.054,0.861-0.521,1.588c0.523,0.713,1.289,1.148,2.067,0.57
		c0.645-0.48,1.191-1.189,1.566-1.91C186.157,107.594,185.609,106.961,184.369,107.012z M164.794,113.734
		c0.168-0.164,0.74-0.467,0.845-0.887c0.194-0.785-1.805-2.295-2.864-2.16c-0.246,0.031-0.601,0.574-0.606,0.889
		C162.143,112.867,163.139,113.771,164.794,113.734z M164.508,108.654c0.354,0.383,0.421,0.494,0.519,0.553
		c0.639,0.387,4.805-0.549,5.141-1.199c0.07-0.135-0.258-0.664-0.32-0.65C168.123,107.746,166.41,108.18,164.508,108.654z
		 M178.597,104.246c1.524-0.627,2.916-1.186,4.282-1.797c0.067-0.033,0.017-0.717-0.142-0.805
		C181.761,101.102,178.903,102.752,178.597,104.246z M172.506,111.756c-0.351-0.527-0.628-1.002-0.971-1.426
		c-0.145-0.178-0.428-0.244-0.648-0.359c-0.107,0.225-0.316,0.455-0.306,0.674C170.64,111.828,171.167,112.139,172.506,111.756z"/>
	<path style="fill-rule:evenodd;clip-rule:evenodd;fill:#343434;" d="M198.295,85.814c2.76,0.131,4.894,2.303,5.328,5.551
		c0.095,0.709,0.153,1.498-0.065,2.154c-0.316,0.941,0.016,1.604,0.439,2.371c1.207,2.189,2.347,4.414,3.506,6.631
		c0.466,0.889,0.021,1.443-0.792,1.645c-1.679,0.422-3.38,0.756-5.078,1.094c-2.496,0.496-4.991,1.002-7.499,1.438
		c-2.091,0.365-3.204-0.416-3.734-2.482c-0.119-0.469-0.263-0.936-0.36-1.408c-0.378-1.855-0.301-3.75-1.463-5.494
		c-1.103-1.652-0.454-3.541,0.536-5.16c1.85-3.023,4.592-4.943,7.879-6.131C197.398,85.875,197.859,85.88,198.295,85.814z
		 M194.775,89.256c-1.707,0.799-1.762,1.313-0.666,2.945c0.278,0.414,0.222,1.055,0.319,1.59c-0.631-0.061-1.31,0.004-1.875-0.221
		c-0.42-0.166-0.692-0.703-1.058-1.107c-1.357,2.508-1.773,4.139,0.271,5.344c0.242,0.143,0.518,0.717,0.423,0.867
		c-0.999,1.59-0.153,3.059,0.313,4.488c0.507,1.555,1.081,1.721,2.709,1.398c2.659-0.523,5.33-0.99,7.992-1.496
		c0.49-0.094,0.966-0.266,1.538-0.428c-0.834-1.848-1.575-3.541-2.369-5.211c-0.164-0.348-0.497-0.631-0.795-0.895
		c-0.767-0.676-0.923-1.703-0.392-2.59c0.201-0.334,0.547-0.77,0.465-1.055c-0.42-1.457-0.773-2.984-1.51-4.285
		c-0.678-1.195-2.298-1.279-3.157-0.521c0.362,0.867,0.728,1.709,1.069,2.563c0.308,0.768,0.252,1.48-0.587,1.844
		c-0.91,0.396-1.486-0.143-1.834-0.904C195.304,90.859,195.078,90.09,194.775,89.256z"/>
	<path style="fill-rule:evenodd;clip-rule:evenodd;fill:#343434;" d="M157.458,114.141c-0.514-1.023-0.963-1.867-1.36-2.734
		c-0.262-0.57-0.707-1.316,0.16-1.633c0.326-0.121,1.142,0.357,1.337,0.754c0.573,1.166,0.937,2.434,1.4,3.654
		c0.14,0.367,0.304,0.734,0.515,1.064c0.54,0.852,1.191,1.641,1.657,2.527c0.938,1.789,0.054,3.463-1.928,3.787
		c-1.107,0.182-2.213,0.426-3.328,0.496c-0.396,0.025-1.08-0.287-1.184-0.596c-0.488-1.467-1.184-3.004-1.106-4.48
		c0.072-1.383,1.464-2.227,2.859-2.645C156.704,114.268,156.94,114.242,157.458,114.141z M156.592,119.961
		c0.811-0.199,1.573-0.334,2.287-0.598c0.203-0.076,0.445-0.621,0.357-0.795c-0.304-0.605-0.641-1.291-1.165-1.66
		c-0.496-0.348-1.243-0.408-1.887-0.439c-0.195-0.008-0.62,0.525-0.589,0.764c0.117,0.893,0.371,1.77,0.606,2.643
		C156.221,119.943,156.496,119.941,156.592,119.961z"/>
	<path style="fill-rule:evenodd;clip-rule:evenodd;fill:#343434;" d="M132.884,93.951c0.052,2.123-2.304,4.807-4.243,5
		c-1.666,0.168-3.932-2.613-3.404-4.193c0.074-0.221,0.213-0.447,0.385-0.602c0.816-0.738,1.662-1.445,2.484-2.178
		c0.836-0.744,1.721-1.209,2.841-0.607C132.052,91.963,132.688,92.883,132.884,93.951z M128.428,96.676
		c1.312-0.02,2.426-0.908,2.704-2.076c0.095-0.393-0.03-1.074-0.302-1.258c-0.338-0.232-1.058-0.277-1.391-0.061
		c-0.619,0.402-1.129,1.014-1.584,1.615c-0.23,0.303-0.438,0.873-0.301,1.141C127.734,96.389,128.264,96.564,128.428,96.676z"/>
	<path style="fill-rule:evenodd;clip-rule:evenodd;fill:#343434;" d="M154.214,113.539c-0.232,0.607-0.557,1.648-1.045,2.607
		c-0.166,0.328-0.743,0.447-1.133,0.66c-0.147-0.467-0.373-0.926-0.414-1.402c-0.023-0.275,0.307-0.566,0.372-0.873
		c0.113-0.523,0.142-1.064,0.206-1.6c-0.507-0.039-1.063-0.23-1.511-0.088c-2.138,0.684-4.269,1.398-6.351,2.229
		c-0.772,0.309-1.284,0.33-1.476-0.498c-0.074-0.316,0.164-0.887,0.439-1.074c2.801-1.881,5.954-2.627,9.284-2.648
		C153.74,110.844,154.244,111.637,154.214,113.539z"/>
	<path style="fill-rule:evenodd;clip-rule:evenodd;fill:#343434;" d="M121.634,93.871c0.244-0.287,0.501-0.592,0.759-0.895
		c0.276,0.297,0.705,0.553,0.801,0.898c0.301,1.088,0.408,2.232,0.722,3.316c0.24,0.828,0.71,1.588,1.02,2.4
		c0.124,0.322,0.095,0.705,0.134,1.059c-0.398-0.016-0.924,0.119-1.17-0.084c-0.45-0.371-0.906-0.896-1.057-1.439
		C122.375,97.455,122.053,95.744,121.634,93.871z"/>
	<path style="fill-rule:evenodd;clip-rule:evenodd;fill:#343434;" d="M157.099,72.161c0.408,0.513,0.854,0.837,0.894,1.204
		c0.029,0.271-0.473,0.599-0.737,0.9c-0.326-0.35-0.738-0.66-0.929-1.072C156.257,73.043,156.722,72.646,157.099,72.161z"/>
	<path style="fill-rule:evenodd;clip-rule:evenodd;fill:#343434;" d="M197.303,103.404c-1.767,0.016-2.802-0.838-2.907-2.543
		c-0.026-0.445,0.229-1.035,0.559-1.328c0.164-0.145,0.897,0.125,1.194,0.4c1.834,1.701,1.814,1.719,4.066,0.443
		c0.244-0.139,0.532-0.381,0.751-0.336c0.412,0.084,0.928,0.25,1.132,0.561c0.147,0.223-0.015,0.855-0.251,1.094
		C200.84,102.711,198.896,103.389,197.303,103.404z"/>
	<path style="fill-rule:evenodd;clip-rule:evenodd;fill:#343434;" d="M195.495,98.352c-1.502,0.037-2.283-0.705-2.28-1.867
		c0-0.697,0.088-1.432,0.993-1.545c0.676-0.084,2.032,1.51,1.976,2.471C196.16,97.805,195.639,98.168,195.495,98.352z"/>
	<path style="fill-rule:evenodd;clip-rule:evenodd;fill:#343434;" d="M196.67,95.404c0.124-0.207,0.387-0.645,0.649-1.082
		c0.477,0.291,1.018,0.518,1.409,0.896c0.263,0.254,0.302,0.73,0.463,1.1c0.346,0.791,0.092,1.406-0.697,1.602
		c-0.754,0.189-1.468-0.023-1.638-0.965C196.784,96.559,196.759,96.156,196.67,95.404z"/>
</g>
</svg>
