<?xml version="1.0" encoding="iso-8859-1"?>
<!-- Generator: Adobe Illustrator 16.0.0, SVG Export Plug-In . SVG Version: 6.00 Build 0)  -->
<!DOCTYPE svg PUBLIC "-//W3C//DTD SVG 1.1//EN" "http://www.w3.org/Graphics/SVG/1.1/DTD/svg11.dtd">
<svg version="1.1" id="Layer_1" xmlns="http://www.w3.org/2000/svg" xmlns:xlink="http://www.w3.org/1999/xlink" x="0px" y="0px"
	 width="100px" height="100px" viewBox="100 0 100 100" style="enable-background:new 100 0 100 100;" xml:space="preserve">
<g>
	<path style="fill:#FFFFFF;" d="M117.418,83.066c-0.192-2.391-0.502-4.502-0.509-6.615c-0.038-10.773-0.11-21.551,0.062-32.321
		c0.095-5.979,0.631-11.951,0.998-17.925c0.072-1.184,0.405-2.361,0.391-3.539c-0.018-1.456,0.977-2.22,1.986-2.466
		c2.316-0.566,4.713-1.037,7.087-1.089c5.927-0.132,11.858,0.012,17.788,0c3.219-0.007,6.44-0.209,9.657-0.137
		c3.129,0.07,6.343,0.921,9.349,0.419c2.725-0.455,5.301-0.123,7.942-0.137c2.246-0.013,4.492-0.008,6.735-0.095
		c1.587-0.062,2.48,0.736,2.652,2.173c0.367,3.057,0.672,6.127,0.842,9.2c0.314,5.696,0.599,11.396,0.73,17.099
		c0.068,2.883-0.268,5.773-0.34,8.661c-0.199,8.041-0.357,16.082-0.535,24.124c-0.033,1.495-0.688,2.432-2.297,2.447
		c-9.395,0.097-18.789,0.232-28.182,0.271c-8.213,0.033-16.427-0.045-24.641-0.066C124.059,83.061,120.981,83.066,117.418,83.066z
		 M163.414,80.628c0-0.108,0-0.217,0.002-0.323c3.977,0,7.957-0.09,11.932,0.041c1.771,0.057,2.563-0.785,2.674-2.279
		c0.328-4.356,0.679-8.721,0.729-13.086c0.056-4.478-0.295-8.959-0.356-13.44c-0.125-9.085-0.189-18.173-0.24-27.261
		c-0.008-1.446-0.605-1.801-1.992-1.742c-3.881,0.167-7.77,0.255-11.656,0.236c-6.184-0.032-12.367-0.267-18.548-0.24
		c-3.9,0.017-7.797,0.429-11.699,0.529c-3.758,0.097-7.522-0.041-11.278,0.087c-0.583,0.02-1.474,0.812-1.636,1.407
		c-0.366,1.34-0.485,2.78-0.494,4.18c-0.042,6.433,0.014,12.866-0.017,19.298c-0.02,4.301-0.168,8.602-0.182,12.901
		c-0.017,5.313,0.122,10.627,0.036,15.938c-0.03,1.811,0.74,2.797,2.344,2.883c6.798,0.362,13.601,0.7,20.406,0.844
		C150.092,80.736,156.754,80.628,163.414,80.628z"/>
	<path style="fill:#FFFFFF;" d="M165.1,44.985c0-3.015,0-5.982,0-9.155c-0.758-0.05-1.408-0.132-2.055-0.128
		c-6.988,0.044-13.979,0.006-20.963,0.189c-4.096,0.107-8.191,0.487-12.27,0.899c-3.523,0.357-4.338-0.161-4.787-3.591
		c-0.718-5.479-0.122-6.253,5.36-6.272c5.227-0.019,10.453,0.159,15.681,0.202c1.266,0.011,2.535-0.272,3.799-0.246
		c4.025,0.084,8.049,0.332,12.076,0.36c3.416,0.025,6.834-0.175,10.254-0.252c0.382-0.009,0.767,0.135,1.097,0.197
		c0,2.764-0.028,5.43,0.015,8.094c0.018,1.109,0.229,2.213,0.274,3.322c0.108,2.563,0.256,5.127,0.237,7.691
		c-0.016,2.517-0.077,5.049-0.385,7.542c-0.176,1.417-1.291,2.054-2.828,1.903c-2.246-0.221-4.504-0.346-6.758-0.45
		c-1.742-0.081-3.496,0.051-5.227-0.122c-3.506-0.352-6.959-0.484-10.468,0.246c-1.711,0.357-3.581-0.057-5.378-0.1
		c-2.306-0.057-4.615-0.176-6.914-0.064c-0.521,0.023-1.303,0.805-1.442,1.365c-0.3,1.217-0.424,2.531-0.319,3.779
		c0.111,1.314,0.574,2.601,0.879,3.899c0.311,1.327,1.115,1.802,2.494,1.794c5.987-0.039,11.974,0.063,17.962,0.021
		c5.282-0.034,10.563-0.236,15.848-0.269c2.426-0.015,2.699,0.417,2.621,2.918c-0.049,1.546,0.121,3.112-0.1,4.628
		c-0.101,0.687-0.824,1.697-1.412,1.813c-1.478,0.292-3.039,0.159-4.568,0.192c-2.52,0.053-5.039,0.121-7.559,0.147
		c-0.793,0.01-1.593-0.056-2.38-0.153c-0.657-0.082-1.309-0.394-1.954-0.377c-3.262,0.083-6.519,0.315-9.778,0.346
		c-1.936,0.021-3.875-0.363-5.811-0.342c-3.965,0.047-7.93,0.201-11.891,0.395c-2.705,0.132-3.311-0.274-3.333-3.026
		c-0.064-8.17-0.074-16.341-0.059-24.511c0.006-2.886,0.343-2.998,3.299-2.94c5.028,0.098,10.061-0.003,15.09,0
		c5.381,0.005,10.761,0.036,16.143,0.053C161.334,44.99,163.072,44.985,165.1,44.985z"/>
</g>
</svg>
