<?xml version="1.0" encoding="iso-8859-1"?>
<!-- Generator: Adobe Illustrator 16.0.0, SVG Export Plug-In . SVG Version: 6.00 Build 0)  -->
<!DOCTYPE svg PUBLIC "-//W3C//DTD SVG 1.1//EN" "http://www.w3.org/Graphics/SVG/1.1/DTD/svg11.dtd">
<svg version="1.1" id="Layer_1" xmlns="http://www.w3.org/2000/svg" xmlns:xlink="http://www.w3.org/1999/xlink" x="0px" y="0px"
	 width="300px" height="100px" viewBox="0 0 300 100" style="enable-background:new 0 0 300 100;" xml:space="preserve">
<g>
	<path style="fill-rule:evenodd;clip-rule:evenodd;fill:#343434;" d="M12.272,76.745c0-18.217,0-35.833,0-54.167
		c9.228,0.374,18.331,0.272,27.313,1.261c6.537,0.72,11.161,4.777,12.557,11.634c1.587,7.797-1.027,14.583-7.041,18.507
		c-0.573,0.374-1.158,0.731-2.09,1.319c3.932,6.949,7.821,13.821,12.113,21.404c-4.637,0-8.71,0.102-12.77-0.095
		c-0.713-0.035-1.553-1.214-2.016-2.043c-2.302-4.125-4.51-8.303-6.727-12.476c-2.761-5.195-2.75-5.201-9.208-4.337
		c0,5.196-0.126,10.471,0.054,15.734c0.089,2.613-0.776,3.485-3.355,3.303C18.255,76.59,15.384,76.745,12.272,76.745z
		 M24.634,47.915c3.644-0.292,7.09-0.258,10.4-0.914c3.697-0.734,5.63-3.851,5.467-7.72c-0.148-3.521-1.82-5.659-5.667-6.238
		c-3.338-0.502-6.768-0.395-10.2-0.56C24.634,37.789,24.634,42.557,24.634,47.915z"/>
	<path style="fill-rule:evenodd;clip-rule:evenodd;fill:#343434;" d="M146.834,44.634c0-3.964,0-7.483,0-11.295
		c-9.571,0-18.995,0-28.736,0c0-3.553,0-6.826,0-10.255c13.545,0,27.114,0,40.901,0c0,10.508,0,20.853,0,31.646
		c-9.48,0-18.988,0-28.739,0c0,4.063,0,7.683,0,11.629c9.501,0,18.918,0,28.637,0c0,3.463,0,6.615,0,10.081
		c-13.497,0-27.034,0-40.853,0c0-10.476,0-20.916,0-31.806C127.619,44.634,137.128,44.634,146.834,44.634z"/>
	<path style="fill-rule:evenodd;clip-rule:evenodd;fill:#343434;" d="M186.123,23.087c3.927,0,7.684,0,11.838,0
		c0,3.586-0.046,7.013,0.01,10.438c0.136,8.301,0.05,16.62,0.578,24.897c0.37,5.819,3.714,8.716,8.781,8.76
		c5.144,0.046,8.604-2.986,9.152-8.845c0.514-5.498,0.448-11.056,0.518-16.588c0.077-6.111,0.018-12.223,0.018-18.584
		c3.941,0,7.679,0,11.853,0c0,2.89,0.041,5.737-0.007,8.583c-0.149,8.881,0.159,17.805-0.606,26.634
		c-1.449,16.724-18.14,24.961-32.775,16.507c-6.337-3.661-8.927-9.832-9.219-16.541C185.759,46.723,186.123,35.061,186.123,23.087z"
		/>
	<path style="fill-rule:evenodd;clip-rule:evenodd;fill:#343434;" d="M254.936,23.067c4.282,0,8.052,0,12.146,0
		c0,14.391,0,28.635,0,43.33c7.259,0,14.209,0,21.327,0c0,3.614,0,6.775,0,10.352c-5.792,0-11.414,0.002-17.036,0
		c-4.613-0.002-9.229,0.09-13.835-0.095c-0.89-0.035-2.486-1.148-2.491-1.774C254.909,57.718,254.936,40.555,254.936,23.067z"/>
	<path style="fill-rule:evenodd;clip-rule:evenodd;fill:#343434;" d="M78.677,76.487c0-18.099,0-35.605,0-53.342
		c3.97,0,7.822,0,11.854,0c0,17.77,0,35.471,0,53.342C86.476,76.487,82.639,76.487,78.677,76.487z"/>
</g>
</svg>
