<?xml version="1.0" encoding="iso-8859-1"?>
<!-- Generator: Adobe Illustrator 16.0.0, SVG Export Plug-In . SVG Version: 6.00 Build 0)  -->
<!DOCTYPE svg PUBLIC "-//W3C//DTD SVG 1.1//EN" "http://www.w3.org/Graphics/SVG/1.1/DTD/svg11.dtd">
<svg version="1.1" id="Layer_1" xmlns="http://www.w3.org/2000/svg" xmlns:xlink="http://www.w3.org/1999/xlink" x="0px" y="0px"
	 width="400px" height="400px" viewBox="0 0 400 400" style="enable-background:new 0 0 400 400;" xml:space="preserve">
<g>
	<g>
		<polyline style="fill:none;stroke:#FFFFFF;stroke-width:2;stroke-miterlimit:10;" points="407.565,-183.375 407.565,-221.835 
			444.086,-221.835 444.086,-269.021 405.949,-269.021 405.949,-230.561 455.721,-230.561 455.721,-269.021 491.272,-269.021 		"/>
		<polyline style="fill:none;stroke:#FFFFFF;stroke-width:2;stroke-miterlimit:10;" points="491.272,-256.093 465.416,-256.093 
			465.416,-242.52 418.231,-242.52 418.231,-256.093 433.421,-256.093 433.421,-210.847 418.231,-210.847 418.231,-183.375 		"/>
	</g>
	<g>
		<polyline style="fill:none;stroke:#FFFFFF;stroke-width:2;stroke-miterlimit:10;" points="693.352,-64.22 693.352,-25.759 
			656.832,-25.759 656.832,21.427 694.969,21.427 694.969,-17.034 645.196,-17.034 645.196,21.427 609.645,21.427 		"/>
		<polyline style="fill:none;stroke:#FFFFFF;stroke-width:2;stroke-miterlimit:10;" points="609.645,8.499 635.501,8.499 
			635.501,-5.075 682.688,-5.075 682.688,8.499 667.497,8.499 667.497,-36.749 682.688,-36.749 682.688,-64.22 		"/>
	</g>
</g>
<g>
	<g>
		<polyline style="fill:none;stroke:#FFFFFF;stroke-width:2;stroke-miterlimit:10;" points="-463.056,234.337 -463.056,135.236 
			-434.741,135.236 -434.741,106.417 -334.629,106.417 		"/>
		<polyline style="fill:none;stroke:#FFFFFF;stroke-width:2;stroke-miterlimit:10;" points="-432.213,208.046 -448.898,208.046 
			-448.898,147.877 -434.236,147.877 -434.236,177.456 -463.056,177.456 		"/>
		<polyline style="fill:none;stroke:#FFFFFF;stroke-width:2;stroke-miterlimit:10;" points="-404.91,120.574 -421.09,120.574 
			-421.09,134.731 -392.775,134.731 -392.775,106.417 		"/>
		<polyline style="fill:none;stroke:#FFFFFF;stroke-width:2;stroke-miterlimit:10;" points="-360.417,137.259 -360.417,120.574 
			-392.775,120.574 		"/>
		
			<rect x="-421.09" y="147.877" style="fill:none;stroke:#FFFFFF;stroke-width:2;stroke-miterlimit:10;" width="19.466" height="19.466"/>
		
			<rect x="-463.056" y="106.417" style="fill:none;stroke:#FFFFFF;stroke-width:2;stroke-miterlimit:10;" width="19.466" height="19.465"/>
	</g>
	<g>
		<polyline style="fill:none;stroke:#FFFFFF;stroke-width:2;stroke-miterlimit:10;" points="-155.944,295.404 -155.944,394.505 
			-184.259,394.505 -184.259,423.324 -284.37,423.324 		"/>
		<polyline style="fill:none;stroke:#FFFFFF;stroke-width:2;stroke-miterlimit:10;" points="-186.788,321.695 -170.101,321.695 
			-170.101,381.864 -184.765,381.864 -184.765,352.286 -155.944,352.286 		"/>
		<polyline style="fill:none;stroke:#FFFFFF;stroke-width:2;stroke-miterlimit:10;" points="-214.091,409.168 -197.911,409.168 
			-197.911,395.009 -226.226,395.009 -226.226,423.324 		"/>
		<polyline style="fill:none;stroke:#FFFFFF;stroke-width:2;stroke-miterlimit:10;" points="-258.585,392.482 -258.585,409.168 
			-226.226,409.168 		"/>
		
			<rect x="-217.378" y="362.396" style="fill:none;stroke:#FFFFFF;stroke-width:2;stroke-miterlimit:10;" width="19.467" height="19.468"/>
		
			<rect x="-175.411" y="403.857" style="fill:none;stroke:#FFFFFF;stroke-width:2;stroke-miterlimit:10;" width="19.467" height="19.467"/>
	</g>
</g>
<g>
	<g>
		<polyline style="fill:none;stroke:#FFFFFF;stroke-width:2;stroke-miterlimit:10;" points="-253.188,-237.577 -332.379,-237.577 
			-332.379,-199.354 -388.956,-199.354 -388.956,-237.577 -351.818,-237.577 -351.818,-181.263 -388.956,-181.263 
			-388.956,-101.117 		"/>
		<polyline style="fill:none;stroke:#FFFFFF;stroke-width:2;stroke-miterlimit:10;" points="-263.207,-218.597 -370.502,-218.597 
			-370.502,-110.512 		"/>
	</g>
	<g>
		<polyline style="fill:none;stroke:#FFFFFF;stroke-width:2;stroke-miterlimit:10;" points="-213.586,77.316 -134.395,77.316 
			-134.395,39.09 -77.818,39.09 -77.818,77.316 -114.955,77.316 -114.955,21 -77.818,21 -77.818,-59.145 		"/>
		<polyline style="fill:none;stroke:#FFFFFF;stroke-width:2;stroke-miterlimit:10;" points="-203.568,58.336 -96.271,58.336 
			-96.271,-49.748 		"/>
	</g>
</g>
<path style="fill:none;stroke:#EE3431;stroke-width:2;stroke-miterlimit:10;" d="M921.623,330.287"/>
<g>
	<g>
		<polyline style="fill:none;stroke:#FFFFFF;stroke-width:2;stroke-linecap:round;stroke-miterlimit:10;" points="368.487,154.248 
			368.487,65.062 317.66,65.062 		"/>
		<polyline style="fill:none;stroke:#FFFFFF;stroke-width:2;stroke-linecap:round;stroke-miterlimit:10;" points="334.668,82.803 
			334.668,31.976 245.481,31.976 		"/>
		<g>
			
				<rect x="348.828" y="31.976" style="fill:none;stroke:#FFFFFF;stroke-width:2;stroke-linecap:round;stroke-miterlimit:10;" width="19.659" height="19.659"/>
			
				<line style="fill:none;stroke:#FFFFFF;stroke-width:2;stroke-linecap:round;stroke-miterlimit:10;" x1="347.516" y1="51.678" x2="281.516" y2="51.678"/>
			
				<line style="fill:none;stroke:#FFFFFF;stroke-width:2;stroke-linecap:round;stroke-miterlimit:10;" x1="348.828" y1="49.83" x2="348.828" y2="115.83"/>
		</g>
	</g>
	<g>
		<polyline style="fill:none;stroke:#FFFFFF;stroke-width:2;stroke-linecap:round;stroke-miterlimit:10;" points="246.214,368.948 
			335.401,368.948 335.401,318.121 		"/>
		<polyline style="fill:none;stroke:#FFFFFF;stroke-width:2;stroke-linecap:round;stroke-miterlimit:10;" points="317.66,335.129 
			368.487,335.129 368.487,245.942 		"/>
		<g>
			
				<rect x="348.828" y="349.289" style="fill:none;stroke:#FFFFFF;stroke-width:2;stroke-linecap:round;stroke-miterlimit:10;" width="19.659" height="19.659"/>
			
				<line style="fill:none;stroke:#FFFFFF;stroke-width:2;stroke-linecap:round;stroke-miterlimit:10;" x1="348.785" y1="347.977" x2="348.785" y2="281.977"/>
			
				<line style="fill:none;stroke:#FFFFFF;stroke-width:2;stroke-linecap:round;stroke-miterlimit:10;" x1="350.632" y1="349.289" x2="284.632" y2="349.289"/>
		</g>
	</g>
	<g>
		<polyline style="fill:none;stroke:#FFFFFF;stroke-width:2;stroke-linecap:round;stroke-miterlimit:10;" points="31.515,246.675 
			31.515,335.862 82.342,335.862 		"/>
		<polyline style="fill:none;stroke:#FFFFFF;stroke-width:2;stroke-linecap:round;stroke-miterlimit:10;" points="65.334,318.121 
			65.334,368.948 154.521,368.948 		"/>
		<g>
			
				<rect x="31.515" y="349.289" style="fill:none;stroke:#FFFFFF;stroke-width:2;stroke-linecap:round;stroke-miterlimit:10;" width="19.659" height="19.659"/>
			
				<line style="fill:none;stroke:#FFFFFF;stroke-width:2;stroke-linecap:round;stroke-miterlimit:10;" x1="52.486" y1="349.246" x2="118.486" y2="349.246"/>
			
				<line style="fill:none;stroke:#FFFFFF;stroke-width:2;stroke-linecap:round;stroke-miterlimit:10;" x1="51.174" y1="351.093" x2="51.174" y2="285.093"/>
		</g>
	</g>
	<g>
		<polyline style="fill:none;stroke:#FFFFFF;stroke-width:2;stroke-linecap:round;stroke-miterlimit:10;" points="153.788,31.976 
			64.601,31.976 64.601,82.803 		"/>
		<polyline style="fill:none;stroke:#FFFFFF;stroke-width:2;stroke-linecap:round;stroke-miterlimit:10;" points="82.342,65.795 
			31.515,65.795 31.515,154.981 		"/>
		<g>
			
				<rect x="31.515" y="31.976" style="fill:none;stroke:#FFFFFF;stroke-width:2;stroke-linecap:round;stroke-miterlimit:10;" width="19.659" height="19.659"/>
			
				<line style="fill:none;stroke:#FFFFFF;stroke-width:2;stroke-linecap:round;stroke-miterlimit:10;" x1="51.217" y1="52.947" x2="51.217" y2="118.947"/>
			
				<line style="fill:none;stroke:#FFFFFF;stroke-width:2;stroke-linecap:round;stroke-miterlimit:10;" x1="49.37" y1="51.635" x2="115.37" y2="51.635"/>
		</g>
	</g>
</g>
</svg>
