<?xml version="1.0" encoding="iso-8859-1"?>
<!-- Generator: Adobe Illustrator 16.0.0, SVG Export Plug-In . SVG Version: 6.00 Build 0)  -->
<!DOCTYPE svg PUBLIC "-//W3C//DTD SVG 1.1//EN" "http://www.w3.org/Graphics/SVG/1.1/DTD/svg11.dtd">
<svg version="1.1" id="Layer_1" xmlns="http://www.w3.org/2000/svg" xmlns:xlink="http://www.w3.org/1999/xlink" x="0px" y="0px"
	 width="240px" height="155px" viewBox="0 0 240 155" style="enable-background:new 0 0 240 155;" xml:space="preserve">
<g>
	<path style="fill-rule:evenodd;clip-rule:evenodd;fill:#FFD332;" d="M157.639,59.915c10.115-10.519,22.262-17.953,34.893-24.702
		c-0.064-0.132-0.131-0.264-0.195-0.397c-2.157,0.926-4.338,1.8-6.467,2.787c-8.031,3.726-15.161,8.867-22.017,14.375
		c-3.892,3.126-7.54,6.559-11.208,9.951c-0.763,0.705-0.973,1.989-1.704,2.751c-1.886,1.965-3.909,3.8-5.909,5.653
		c-0.291,0.27-0.756,0.494-1.136,0.486c-0.479-0.008-1.115-0.142-1.385-0.469c-0.251-0.305-0.226-0.96-0.116-1.411
		c0.128-0.534,0.475-1.014,0.447-1.786c-1.477,1.264-3.061,2.422-4.403,3.813c-2.739,2.839-5.344,5.81-8.019,8.711
		c-0.533,0.578-1.057,1.249-1.73,1.59c-0.631,0.32-1.656,0.578-2.135,0.275c-0.447-0.285-0.74-1.479-0.517-2.035
		c0.804-1.99,1.718-3.965,2.851-5.783c1.274-2.043,2.752-3.977,4.313-5.812c0.492-0.578,1.521-0.74,2.34-0.974
		c0.277-0.08,0.659,0.201,0.823,0.258c-4.692,3.536-6.854,8.096-8.969,12.687c0.17,0.139,0.339,0.277,0.509,0.418
		c1.321-1.445,2.597-2.938,3.975-4.327c3.215-3.247,6.479-6.447,9.729-9.662c0.109-0.109,0.256-0.185,0.393-0.262
		c1.02-0.578,2.1-1.803,3.193-0.799c0.407,0.373-0.26,1.914-0.433,2.924c-0.018,0.098-0.003,0.202-0.003,0.62
		c1.824-1.545,3.5-2.965,5.3-4.49c-1.097-0.736-0.749-1.314,0.022-2.085c5.139-5.137,10.479-10.025,16.506-14.128
		c3.592-2.446,7.033-5.124,10.698-7.452c5.386-3.422,11.286-5.81,17.27-7.981c1.233-0.447,2.433-0.993,3.684-1.379
		c0.328-0.102,0.998,0.117,1.132,0.381c0.144,0.284-0.027,0.959-0.294,1.173c-0.768,0.617-1.652,1.087-2.8,1.809
		c0.595-0.036,0.874-0.115,1.119-0.054c0.428,0.106,1.107,0.216,1.185,0.475c0.123,0.408-0.008,1.095-0.305,1.389
		c-0.741,0.735-1.579,1.409-2.477,1.944c-6.738,4.013-12.429,9.32-18.12,14.623c-3.954,3.684-7.879,7.4-11.735,11.187
		c-1.432,1.406-2.63,3.052-3.742,4.793c0.295-0.235,0.592-0.467,0.883-0.706c4.994-4.083,9.839-8.371,15.03-12.184
		c4.004-2.939,8.448-5.277,12.688-7.896c1.898-1.173,4.061-2.014,5.2-4.157c0.217-0.407,0.552-0.829,0.941-1.047
		c0.566-0.319,1.232-0.458,1.856-0.675c-0.073,0.61-0.146,1.219-0.254,2.116c1.25-0.75,2.711-1.396,3.873-2.392
		c1.04-0.89,1.773-0.913,2.683-0.009c-3.733,4.472-7.456,8.93-11.179,13.389c-0.118-0.074-0.236-0.148-0.355-0.222
		c1.01-1.766,2.019-3.532,3.026-5.298c-0.09-0.063-0.18-0.125-0.271-0.188c-0.547,0.601-1.082,1.215-1.646,1.801
		c-0.711,0.739-1.469,1.521-2.571,0.726c-1.104-0.794-0.414-1.666,0.013-2.5c0.11-0.217,0.207-0.443,0.507-1.085
		c-3.095,1.87-5.912,3.379-8.521,5.19c-4.484,3.115-8.943,6.285-13.224,9.67c-6.456,5.107-12.194,10.977-17.505,17.268
		c-1.356,1.607-2.817,3.127-4.244,4.675c-0.71,0.769-1.449,0.97-2.095,0.228c13.653-19.021,29.592-35.625,48.641-49.228
		c-1.064,0.387-2.144,0.739-3.192,1.168c-5.63,2.307-10.799,5.334-15.519,9.237c-5.588,4.622-11.427,8.943-17.144,13.412
		C158.896,61.017,158.165,61.156,157.639,59.915z M193.948,50.026c0.102,0.099,0.203,0.198,0.306,0.297
		c1.307-1.367,2.614-2.734,4.207-4.399C195.608,46.364,195.177,48.583,193.948,50.026z"/>
	<path style="fill-rule:evenodd;clip-rule:evenodd;fill:#FFD332;" d="M142.293,38.97c-2.221,0.495-4.516,0.775-6.651,1.516
		c-14.533,5.045-28.233,11.766-40.584,21.005c-5.721,4.28-11.463,8.601-16.703,13.437c-6.019,5.556-11.619,11.586-17.171,17.621
		c-8.567,9.31-16.273,19.324-23.516,29.695c-0.617,0.884-1.226,2.052-2.768,1.211c5.327-6.946,10.463-13.917,15.899-20.646
		c4.487-5.554,9.248-10.896,14.044-16.189c3.06-3.379,6.309-6.602,9.647-9.707c3.903-3.629,7.911-7.159,12.023-10.55
		c12.596-10.387,26.538-18.52,41.758-24.415c3.421-1.325,6.98-2.303,10.501-3.355c0.889-0.265,1.877-0.297,2.814-0.27
		c1.777,0.052,2.504,1.314,1.48,2.781c-1.502,2.151-3.072,4.285-4.852,6.207c-5.397,5.83-10.895,11.567-16.385,17.309
		c-1.002,1.047-2.156,1.949-3.497,3.147c1.499-0.412,2.624-0.87,3.787-1.008c2.258-0.269,3.38,1.021,2.399,3.045
		c-1.416,2.922-3.065,5.764-4.911,8.436c-2.062,2.984-4.441,5.75-6.712,8.586c-0.516,0.645-1.119,1.338-2.109,0.557
		c2.448-3.109,5.015-6.08,7.247-9.285c2.17-3.119,4.562-6.2,5.325-10.046c-0.127-0.136-0.253-0.273-0.38-0.409
		c-1.01,0.36-2.039,0.675-3.026,1.088c-4.311,1.802-7.068,5.356-9.876,8.843c-2.279,2.828-4.612,5.618-6.79,8.523
		c-5.175,6.906-10.306,13.847-15.383,20.824c-2.259,3.105-4.337,6.342-6.524,9.5c-0.508,0.732-1.061,1.461-1.717,2.053
		c-0.299,0.27-0.9,0.205-1.364,0.293c-0.037-0.414-0.231-0.896-0.085-1.23c1.509-3.468,2.754-7.104,4.693-10.32
		c3.44-5.705,6.976-11.413,11.097-16.625c3.916-4.953,8.544-9.36,13.034-13.834c2.332-2.324,5.133-4.17,7.549-6.418
		c2.455-2.285,4.674-4.82,7.035-7.207c3.957-4,8.035-7.883,11.888-11.979c2.911-3.097,5.569-6.434,8.287-9.708
		c0.425-0.514,0.567-1.264,0.839-1.904C142.521,39.349,142.407,39.159,142.293,38.97z M80.497,114.809
		c9.439-12.726,18.667-25.166,28.097-37.88C96.711,87.824,87.231,100.079,80.497,114.809z"/>
	<path style="fill-rule:evenodd;clip-rule:evenodd;fill:#FFD332;" d="M169.201,87.033c1.551-1.768,3.14-3.504,4.644-5.313
		c1.647-1.982,3.272-3.988,4.786-6.072c0.554-0.764,0.833-1.76,1.106-2.688c0.712-2.419,1.317-4.87,2.06-7.28
		c0.1-0.322,0.734-0.48,1.12-0.714c0.211,0.415,0.672,0.887,0.591,1.234c-0.562,2.432-1.296,4.824-1.848,7.257
		c-0.273,1.207-0.279,2.475-0.43,3.954c-0.535-0.269-1.005-0.502-1.575-0.786c-1.913,2.512-3.8,5.098-5.809,7.585
		c-1.119,1.386-2.374,2.683-3.703,3.867c-0.632,0.563-1.554,0.883-2.397,1.094c-0.389,0.098-0.993-0.24-1.333-0.56
		c-0.153-0.143,0.013-0.766,0.182-1.095c2.613-5.103,5.259-10.187,7.876-15.286c0.494-0.964,0.896-1.975,1.071-3.249
		c-0.419,0.228-0.865,0.418-1.254,0.689c-6.088,4.237-10.952,9.68-15.182,15.698c-1.839,2.616-3.347,5.463-5.075,8.16
		c-0.219,0.342-0.863,0.411-1.31,0.606c-0.019-0.439-0.206-0.966-0.03-1.307c2.684-5.223,5.997-10.052,9.979-14.337
		c3.171-3.416,6.756-6.447,10.162-9.645c0.19-0.179,0.411-0.336,0.645-0.454c1.116-0.568,2.308-1.459,3.472-0.347
		c1.047,1.001,0.104,2.111-0.348,3.019c-2.325,4.661-4.747,9.272-7.119,13.911c-0.282,0.551-0.463,1.152-0.69,1.731
		C168.928,86.817,169.064,86.926,169.201,87.033z"/>
	<path style="fill-rule:evenodd;clip-rule:evenodd;fill:#FFD332;" d="M190.072,70.563c0.098,2.066-1.359,4.31-2.762,4.748
		c-2.136,0.666-4.333-1.014-3.812-3.18c0.507-2.101,1.451-4.12,2.413-6.073c0.305-0.621,1.276-0.916,1.943-1.36
		c0.144,0.154,0.287,0.308,0.431,0.46c-0.184,0.383-0.376,0.762-0.548,1.15c-0.835,1.892-1.754,3.756-2.438,5.702
		c-0.187,0.531,0.34,1.314,0.539,1.981c0.579-0.273,1.249-0.44,1.719-0.843C188.389,72.436,189.1,71.581,190.072,70.563z"/>
	<path style="fill-rule:evenodd;clip-rule:evenodd;fill:#FFD332;" d="M121.769,79.913c0.562-1.472,0.978-3.021,1.714-4.399
		c1.407-2.633,2.993-5.171,4.513-7.744c0.828-1.4,1.623-2.824,2.544-4.161c0.23-0.334,0.889-0.375,1.35-0.551
		c0.039,0.396,0.254,0.897,0.091,1.172c-3.045,5.089-6.134,10.151-9.221,15.213c-0.149,0.246-0.378,0.443-0.569,0.663
		C122.049,80.041,121.908,79.977,121.769,79.913z"/>
	<path style="fill-rule:evenodd;clip-rule:evenodd;fill:#FFD332;" d="M195.107,68.879c-0.69,1.072-1.089,2.064-1.814,2.652
		c-0.345,0.28-1.458-0.01-1.971-0.387c-1.023-0.75-0.886-1.854-0.538-3.001c0.396-1.303,1.184-2.656,2.405-2.362
		C193.984,65.973,194.415,67.682,195.107,68.879z"/>
</g>
<image style="overflow:visible;" width="1788" height="4771" xlink:href="../../../../&#xC6F9; &#xCEA1;&#xCC98;_21-6-2022_175254_blomma.qodeinteractive.com.jpeg"  transform="matrix(0.1621 0 0 0.1621 -391.9219 -406)">
</image>
</svg>
