<?xml version="1.0" encoding="iso-8859-1"?>
<!-- Generator: Adobe Illustrator 16.0.0, SVG Export Plug-In . SVG Version: 6.00 Build 0)  -->
<!DOCTYPE svg PUBLIC "-//W3C//DTD SVG 1.1//EN" "http://www.w3.org/Graphics/SVG/1.1/DTD/svg11.dtd">
<svg version="1.1" id="Layer_1" xmlns="http://www.w3.org/2000/svg" xmlns:xlink="http://www.w3.org/1999/xlink" x="0px" y="0px"
	 width="240px" height="155px" viewBox="0 0 240 155" style="enable-background:new 0 0 240 155;" xml:space="preserve">
<g>
	<path style="fill-rule:evenodd;clip-rule:evenodd;fill:#343434;" d="M94.664,36.419c-0.07,0.457-0.139,0.914-0.208,1.37
		c-0.282,0.295-0.328,0.637-0.201,1.014c-0.231,0.744-0.435,1.493-0.411,2.283c-0.313,0.293-0.305,0.638-0.162,1.004
		c-0.057,0.432-0.114,0.863-0.171,1.295c-0.199,0.188-0.274,0.41-0.186,0.677c-0.032,0.218-0.063,0.436-0.095,0.654
		c-0.296,1.234-0.593,2.467-0.942,3.921c1.324-0.465,1.837-1.338,2.319-2.244c0.311-0.305,0.621-0.611,0.931-0.917
		c0.658-0.057,1.291,0.021,1.879,0.342c0.185,0.394,0.369,0.787,0.554,1.181c-0.129,0.392-0.258,0.783-0.387,1.174
		c-0.926,0.225-1.021,1.165-1.516,1.76c-0.708,0.468-0.797,1.357-1.324,1.95c-1.393,2.068-2.824,4.117-3.366,6.617
		c-0.197,0.32-0.199,0.657-0.092,1.005c-0.03,0.321-0.06,0.642-0.089,0.963c-0.48,0.723-0.343,1.554-0.317,2.33
		c0.024,0.75,0.434,1.217,1.286,0.791c0.259,0,0.519,0,0.778,0c1.419,0.903,2.996,0.567,4.529,0.572
		c0.647,0.181,1.3,0.268,1.965,0.1c3.562,0.462,7.201-0.127,10.732,0.796c0.349,0.091,0.645-0.094,0.73-0.476
		c0.215-0.953,0.649-1.926,0.581-2.861c-0.293-4.051-0.691-8.097-1.336-12.112c-0.093-0.644-0.188-1.287-0.281-1.931
		c0.069-0.615-0.116-1.17-0.401-1.701c-0.09-1.481-0.568-2.862-1.097-4.229c-0.089-0.94-0.721-1.591-1.229-2.307
		c0.086-0.289,0.171-0.577,0.256-0.866c0.317-0.08,0.633-0.16,0.95-0.24c0.521,0.079,1.041,0.158,1.562,0.237l-0.021,0.03
		c-0.123,0.411,0.13,0.631,0.423,0.83c1.011,1.245,2.021,2.488,3.032,3.732c-0.031,0.105-0.003,0.189,0.084,0.254
		c0.084,0.548,0.238,1.054,0.779,1.334l-0.01,0.014c1.012,1.918,2.029,3.832,3.033,5.754c4.32,8.272,7.962,16.915,13.134,24.721
		c2.752,4.153,5.226,8.571,9.383,11.622c1.368,1.004,2.69,1.034,3.645-0.323c0.851-1.208,1.365-2.603,1.369-4.132
		c0.005-2.667-0.376-5.321-0.1-8.002c0.092-0.89-0.005-2.02-1.192-2.372c-3.54-1.054-6.078-3.386-7.836-6.493
		c-2.197-3.882-3.685-8.031-4.182-12.531c-0.347-3.139-1.124-6.234-1.075-9.416c0.057-3.58-0.424-7.247,1.518-10.559
		c0.483,0.005,0.964,0.011,1.444,0.015c0.621,0.325,0.822,1.004,1.258,1.486c0.216,0.546,0.431,1.092,0.646,1.638
		c1.481,4.66,3.652,9.051,5.153,13.72c1.932,6.006,4.108,11.928,5.43,18.115c0.54,2.527,1.662,2.865,3.641,1.097
		c0.202-0.183,0.401-0.373,0.579-0.579c3.796-4.4,5.012-9.627,4.917-15.283c-0.016-0.902-0.401-1.279-1.284-1.293
		c-1.388-0.022-2.691-0.38-3.901-1.076c-3.512-2.018-4.896-5.435-5.82-9.077c-0.57-2.247-0.866-4.539-1.03-6.89
		c-0.203-2.876-0.371-3.195,2.218-3.747c1.109,0.216,1.913,0.902,2.631,1.719c0.852,1.771,2.131,3.265,3.172,4.912
		c1.692,2.675,3.13,5.48,4.19,8.473c0.152,0.431,0.242,1.056,0.891,0.999c0.517-0.045,0.558-0.603,0.743-0.982
		c1.279-2.625,1.39-5.597,2.339-8.264c0.854-2.401,0.181-5.012,1.499-7.235c0.1-0.046,0.199-0.092,0.298-0.138
		c1.516,0.029,3.272,1.517,3.428,2.919c0.017,0.144-0.012,0.37-0.104,0.433c-0.267,0.18-0.496-0.008-0.731-0.154
		c-0.533-0.331-0.838-1.375-1.505-1.017c-0.812,0.438-0.468,1.487-0.476,2.282c-0.056,4.675-0.553,9.263-2.541,13.572
		c-0.252,0.543-0.445,1.276-0.891,1.539c-1.744,1.032-1.349,2.559-1.317,4.149c0.107,5.423-0.631,10.666-4.221,15.05
		c-1.139,1.393-2.463,2.676-4.422,2.844c-1.168,0.101-1.245,0.854-1.155,1.743c0.266,2.665,0.589,5.325,0.471,8.011
		c-0.032,0.764-0.097,1.527-0.19,2.286c-0.686,5.484-5.839,6.085-9.131,3.854c-2.998-2.03-5.483-4.761-7.432-7.896
		c-1.313-2.111-2.779-4.112-4.055-6.258c-3.063-5.155-5.592-10.583-8.274-15.926c-2.271-4.524-4.511-9.057-7.065-13.607
		c-0.607,0.691-0.304,1.317-0.146,1.888c1.611,5.814,2.675,11.722,3.176,17.737c0.081,0.986-0.299,2.066,0.455,2.98
		c0.1,0.121-0.031,0.659-0.177,0.723c-1.435,0.621-1.192,1.984-1.35,3.103c-0.602,4.281-2.167,8.346-2.762,12.627
		c-0.639,4.594-1.607,9.148-1.296,13.846c0.09,1.357,0.561,1.906,1.845,2.188c4.327,0.957,8.646,2.006,12.601,4.093
		c4.792,2.53,8.518,6.088,11.258,10.873c2.724,4.754,4.693,9.721,5.789,15.05c0.339,1.646,0.546,3.353,0.551,5.03
		c0.01,3.979-2.188,6.771-5.522,8.46c-4.909,2.488-8.695,1.663-12.669-2.193c-3.934-3.819-6.705-8.383-8.949-13.349
		c-1.16-2.568-2.394-5.105-3.42-7.73c-1.938-4.954-2.826-10.135-3.243-15.415c-0.269-3.402-2.051-4.57-5.276-3.409
		c-0.617,0.222-1.443,0.235-1.75,1.037c-1.297,0.354-2.596,0.704-3.894,1.058c-0.228,0-0.456,0-0.684-0.003
		c-0.757-0.075-1.514-0.15-2.271-0.226c-0.224-0.102-0.448-0.2-0.671-0.3c-0.607-0.372-1.239-0.671-1.977-0.641
		c-0.205-0.139-0.411-0.277-0.616-0.417c-0.207-0.546-0.701-0.614-1.181-0.704c-0.204-0.358-0.433-0.69-0.851-0.824
		c-0.843-1.339-1.686-2.677-2.529-4.013c-0.051-0.419-0.057-0.864-0.568-1.029l-0.099-0.095c0.029-0.249,0.057-0.502,0.086-0.751
		c0.235-0.552,0.255-1.119,0.141-1.696c-0.124-0.94,0.612-2.333-0.308-2.724c-0.992-0.422-1.55,1.088-2.387,1.633
		c-0.122,0.077-0.171,0.271-0.253,0.412c-0.427,0.454-0.854,0.911-1.281,1.369c-0.84,0.469-1.75,0.861-2.105,1.875
		c-0.434,0.014-0.672,0.313-0.912,0.615c-2.438,3.079-5.456,5.588-8.204,8.363c-3.951,3.991-7.861,8.02-11.539,12.268
		c-0.334,0.179-0.529,0.452-0.548,0.839l-0.016,0.017c-1.268,0.407-1.81,1.491-2.379,2.549l-0.001-0.012
		c-0.797,0.257-1.098,0.916-1.328,1.633l0.049,0.077l-0.043-0.08c-0.813,0.375-1.314,1.094-1.901,1.718
		c-0.06,0.045-0.083,0.104-0.071,0.177c-0.992,1.209-2.36,2.111-2.958,3.64c-0.303,0.276-0.605,0.552-0.908,0.827
		c-0.781,0.071-1.163,0.557-1.322,1.272c-0.056,0.052-0.076,0.115-0.06,0.188c-0.34,0.16-0.546,0.419-0.584,0.801
		c-0.112,0.113-0.224,0.224-0.335,0.337c-0.376,0.038-0.622,0.231-0.713,0.604l0.011-0.012c-0.44,0.068-0.766,0.287-0.936,0.711
		c-0.666,0.443-1.241,0.974-1.643,1.676c-0.346,0.054-0.618,0.205-0.737,0.558l-0.005-0.009c-0.931,0.374-1.428,1.22-2.073,1.903
		c-0.6,0.257-1.2,0.514-1.799,0.771c-0.235,0.07-0.469,0.142-0.704,0.215c-0.609-0.133-1.218-0.265-1.828-0.396
		c-0.503-1.048-0.281-1.83,0.492-2.782c3.438-4.241,6.767-8.568,10.099-12.892c2.927-3.798,5.808-7.634,8.701-11.457
		c0.193-0.255,0.322-0.559,0.48-0.842c1.557-1.837,2.966-3.781,4.208-5.843c1.183-1.151,2.055-2.514,2.715-4.019
		c0.227-0.285,0.515-0.559,0.247-0.971l0.032-0.033c1.575-0.452,1.982-1.395,1.078-2.495c-0.238-0.664-0.709-1.079-1.377-1.279
		c0,0-0.04-0.028-0.042-0.028c-0.122-0.497-0.41-0.824-0.938-0.902c-0.153-0.482-0.244-0.992-0.636-1.361
		c-0.344-1.134-0.761-2.245-0.761-3.461c0-0.722-0.488-0.945-0.889-0.387c-0.697,0.973-1.896,1.683-1.84,3.105
		c-0.564,0.179-0.922,0.551-1.061,1.128c-1.149,0.665-2.281,0.356-3.411-0.061c0,0,0.02-0.005,0.019-0.003
		c-0.023-0.182-0.046-0.362-0.069-0.544c0.108-0.297,0.217-0.596,0.326-0.893c0.306-0.076,0.571-0.208,0.72-0.507
		c2.184-1.438,3.629-3.607,5.392-5.464c0.351-0.37,0.511-0.848,0.442-1.366c-0.625-4.655-0.69-9.358-0.8-14.031
		c-0.075-3.185-0.744-6.218-1.19-9.312c-0.237-1.648-0.822-3.17-2.036-4.384c-0.319-0.32-0.624-0.675-0.351-1.149
		c0.209-0.364,0.606-0.49,1.002-0.429c0.692,0.105,1.411,0.038,2.049,0.473c5.595,3.824,12.052,5.557,18.391,7.588
		c1.528,0.489,1.547-0.827,1.47-1.428c-0.144-1.122,0.346-1.991,0.67-2.914c1.852-5.275,3.021-10.777,5.248-15.927
		c1.753-4.057,3.745-7.982,6.075-11.75c0.897-1.452,1.928-2.749,3-4.052c0.782-0.949,1.604-0.765,2.496-0.415
		c0.953,0.374,1.033,1.171,0.876,2.051c-0.533,3.01-1.062,6.021-1.591,9.031C94.665,36.252,94.651,36.333,94.664,36.419z
		 M137.874,134.795c-0.565-8.121-3.04-15.385-7.485-21.972c-2.088-3.091-4.781-5.48-8.042-7.317
		c-3.642-2.05-7.594-3.03-11.628-3.824c-1.373-0.271-1.123,0.704-1.035,1.411c0.414,3.364,1.014,6.705,1.856,9.984
		c2.022,7.881,5.167,15.283,9.918,21.923c1.714,2.396,3.602,4.714,6.247,6.198c2.049,1.15,4.248,1.793,6.354,0.328
		C136.416,139.884,137.716,137.523,137.874,134.795z M104.85,98.426c1.529,0.544,1.747-0.108,1.815-1.466
		c0.198-3.908-0.13-7.852,0.706-11.721c0.23-1.063,0.509-2.115,0.676-3.188c0.529-3.381,1.415-6.681,2.215-9.999
		c0.126-0.521,0.597-1.085,0.147-1.515c-0.521-0.497-1.253-0.076-1.621,0.267c-1.432,1.331-3.28,1.975-4.827,3.071
		c-5.124,3.632-10.145,7.408-14.746,11.705c-0.287,0.269-0.581,0.547-0.604,0.944c-0.235,4.008-0.435,8.039,1.905,11.594
		c1.707,2.592,4.76,3.252,7.478,1.814C100.16,98.789,102.418,98.044,104.85,98.426z M43.269,128.021
		c0.12,0.09,0.241,0.179,0.361,0.269c3.775-4.005,7.685-7.89,11.294-12.039c5.854-6.724,12.101-13.063,18.376-19.38
		c3.545-3.569,7.264-6.953,11.057-10.256c0.447-0.387,0.97-0.747,1.038-1.421c0.287-2.867,1.243-5.656,1.015-8.59
		c-0.046-0.592-0.075-1.252,0.134-1.784c1.176-3.003,1.326-6.144,1.394-9.305c0.008-0.349,0.002-0.677-0.389-0.794
		c-0.298-0.089-0.521,0.086-0.684,0.326c-0.521,0.766-1.056,1.524-1.555,2.303c-2.384,3.72-4.756,7.448-7.138,11.17
		c-1.876,2.933-4.011,5.703-4.496,9.351c-0.243,1.823-0.915,3.6-1.472,5.369c-0.583,1.854-2.223,3.207-4.03,3.004
		c-1.596-0.179-2.369,0.507-3.164,1.701c-5.971,8.974-12.35,17.653-18.924,26.191C45.118,125.395,43.866,126.497,43.269,128.021z
		 M76.667,63.567c0.32-0.988-0.294-1.068-0.919-1.218c-4.036-0.968-8.048-2.016-11.863-3.695c-1.148-0.505-2.285-1.036-3.436-1.533
		c-0.789-0.341-1.092-0.163-0.932,0.777c0.32,1.882,0.642,3.772,0.785,5.673c0.38,5.061,0.664,10.129,0.993,15.195
		c0.038,0.589-0.046,1.343,0.616,1.562c0.647,0.215,0.843-0.567,1.187-0.938c4.075-4.396,8.128-8.813,12.186-13.224
		C75.992,65.393,76.622,64.576,76.667,63.567z M93.369,30.2c-0.125-0.645,0.197-1.29-0.4-1.497c-0.581-0.2-0.792,0.441-1.086,0.8
		c-0.552,0.672-1.134,1.328-1.607,2.053c-3.667,5.621-6.416,11.679-8.295,18.107c-1.004,3.435-1.746,6.947-2.581,10.431
		c-0.093,0.387-0.322,0.935,0.184,1.168c0.408,0.188,0.659-0.292,0.919-0.544c2.868-2.772,5.725-5.556,8.592-8.329
		c0.489-0.474,0.787-0.993,0.863-1.7c0.432-3.997,1.524-7.876,2.122-11.851C92.524,35.899,92.563,32.902,93.369,30.2z
		 M88.954,81.051c0.032,0.195-0.253,0.768,0.302,0.939c0.517,0.158,0.917-0.297,1.276-0.603c5.678-4.815,11.685-9.184,17.884-13.299
		c0.42-0.279,1.235-0.403,1.094-1.049c-0.152-0.688-0.959-0.596-1.526-0.651c-5.382-0.524-10.806-0.54-16.162-1.371
		c-0.92-0.143-1.271,0.326-1.357,1.188C89.98,71.087,89.474,75.968,88.954,81.051z M132.954,42.304
		c-0.234,3.136,0.374,6.201,0.813,9.274c0.621,4.345,2.008,8.45,3.816,12.46c1.046,2.318,2.695,3.9,4.679,5.278
		c0.299,0.208,0.688,0.476,1.05,0.194c0.302-0.234,0.086-0.598,0.034-0.915c-0.437-2.708-0.256-5.516-1.152-8.138
		c-0.582-1.697-0.669-3.486-1.287-5.178c-1.3-3.555-2.426-7.173-3.637-10.759c-0.855-2.533-1.729-5.06-2.934-7.458
		c-0.146-0.292-0.252-0.696-0.614-0.691c-0.554,0.008-0.41,0.531-0.494,0.874C132.817,38.915,133.004,40.617,132.954,42.304z
		 M75.252,70.576c-0.254-0.342,0.469-0.938-0.131-1.117c-0.574-0.17-0.993,0.384-1.325,0.799c-2.935,3.668-6.257,6.996-9.289,10.576
		c-0.93,1.096-2.446,2.106-2.488,3.534c-0.086,2.909,0.561,5.746,2.652,8.02c0.761,0.827,1.374,0.867,2.056-0.16
		c1.384-2.088,2.83-4.135,4.304-6.159c0.528-0.726,0.664-1.592,1.022-2.332c1.068-2.2,1.522-4.425,1.198-6.832
		c-0.02-0.146,0.058-0.331,0.144-0.462c0.991-1.494,0.443-3.579,1.896-4.906C75.545,71.304,75.386,70.913,75.252,70.576z
		 M153.216,49.948c0.973-0.029,1.364-0.438,1.091-1.56c-0.813-3.35-2.347-6.396-3.928-9.411c-1.034-1.972-2.261-3.854-3.829-5.47
		c-0.246-0.253-0.508-0.649-0.962-0.409c-0.391,0.208-0.428,0.599-0.388,1c0.074,0.761,0.13,1.524,0.222,2.283
		c0.486,4.042,1.272,7.981,3.87,11.306C150.282,48.956,151.531,49.743,153.216,49.948z M81.16,63.687
		c-1.208-0.008-2.775,1.712-3.229,3.232c-0.999,3.346-1.21,6.866-2.296,10.188c-0.125,0.382-0.218,0.807,0.226,0.998
		c0.549,0.235,0.739-0.246,0.974-0.616c1.532-2.423,3.131-4.806,4.588-7.271c0.967-1.636,2.207-3.099,2.983-4.856
		c0.301-0.684,0.423-1.201-0.487-1.273C82.942,64.012,81.966,63.97,81.16,63.687z M83.77,62.944c0.726,0.189,1.553,0.42,2.044-0.188
		c1.512-1.875,2.609-4.02,3.68-6.167c0.185-0.37,0.14-0.915-0.312-1.172c-0.423-0.241-0.714,0.131-0.978,0.39
		c-1.989,1.959-3.97,3.926-5.948,5.895c-0.227,0.226-0.545,0.467-0.406,0.829c0.157,0.406,0.584,0.467,0.965,0.487
		C83.139,63.036,83.467,62.971,83.77,62.944z"/>
	<path style="fill-rule:evenodd;clip-rule:evenodd;fill:#343434;" d="M194.53,77.601c0.47-1.269,1.359-1.457,2.449-1.7
		c1.424-0.318,2.656-1.229,3.563-2.452c0.864-1.168,1.966-2.05,3.246-2.708c0.274-0.14,0.653-0.347,0.907-0.036
		c0.255,0.312-0.005,0.622-0.23,0.856c-1.306,1.354-2.028,3.072-2.944,4.673c-0.58,1.013-1.414,1.796-2.42,2.396
		c-0.421,0.252-1.041,0.454-1.188,0.829c-1.158,2.931-3.76,4.46-6.209,5.85c-1.948,1.105-1.584,2.563-1.833,4.128
		c-0.715,4.462-1.263,8.965-3.532,13.038c-0.868,1.555-2.03,2.08-3.618,1.896c-1.529-0.18-2.802-1.536-3.042-3.049
		c-0.018-0.106-0.017-0.217-0.015-0.327c0.006-1.586-0.146-2.863-2.373-2.203c-0.857,0.255-2.032-0.146-2.556-0.862
		c-1.771-2.412-5.677-1.771-6.855-5.032c-0.875-2.422-1.515-4.91-2.347-7.339c-0.123-0.358-0.218-0.735-0.397-1.067
		c-0.332-0.61-0.693-0.811-1.168-0.062c-1.728,2.729-3.327,5.514-4.166,8.668c-0.26,0.973-0.838,1.701-1.848,1.873
		c-0.886,0.15-1.75,0.014-2.352-0.809c-0.409-0.556-0.596-1.013,0.149-1.486c1.212-0.771,1.851-1.97,2.276-3.308
		c0.979-3.079,2.42-5.923,4.583-8.338c0.673-0.749,0.616-1.291,0.083-1.993c-0.724-0.961-1.472-1.909-2.105-2.928
		c-0.323-0.519-0.94-1.117-0.49-1.782c0.379-0.562,1.088-0.713,1.771-0.625c0.778,0.101,1.507,0.619,1.521,1.294
		c0.045,1.944,1.683,3.165,2.024,4.96c0.184,0.968,1.396,1.199,1.862,2.015c0.979,1.715,1.771,3.524,2.197,5.449
		c0.311,1.395,0.62,2.771,1.305,4.035c0.201,0.37,0.275,0.947,0.838,0.839c0.479-0.094,0.605-0.626,0.669-1.046
		c0.261-1.729,0.433-3.473,0.72-5.197c0.255-1.531,1.811-2.139,3.106-1.286c0.856,0.565,0.754,1.35,0.565,2.195
		c-0.526,2.361-0.857,4.74-0.496,7.162c0.053,0.356-0.025,0.849,0.455,0.954c0.466,0.104,0.659-0.329,0.83-0.654
		c0.383-0.726,0.723-1.473,1.075-2.215c0.581-1.218,1.558-1.643,2.839-1.364c1.339,0.287,1.643,1.289,1.638,2.485
		c-0.005,2.218-0.001,4.437-0.001,6.825c0.97-0.325,1.102-1.006,1.315-1.568c1.359-3.598,2.279-7.309,2.729-11.128
		c0.14-1.183-0.218-2.19-1.252-3.006c-1.378-1.089-2.503-2.443-3.199-4.095c-0.608-1.441-0.323-1.788,1.259-1.938
		c1.441-0.137,2.214,0.772,3.018,1.658c0.585,0.644,1.095,1.359,1.62,2.057c0.225,0.297,0.37,0.794,0.83,0.615
		c0.572-0.222,0.337-0.702,0.172-1.117c-0.828-2.068-0.997-4.249-1.026-6.442c-0.011-0.786-0.225-1.799,0.79-2.121
		c1.119-0.355,2.287-0.392,3.178,0.645C193.406,74.822,194.222,76.014,194.53,77.601z"/>
	<path style="fill-rule:evenodd;clip-rule:evenodd;fill:#343434;" d="M200.486,22.121c0.982,4.581,0.716,9.123-0.581,13.593
		c-0.39,1.346-0.263,1.993,1.297,1.815c0.443-0.051,0.902,0.021,1.036,0.573c0.142,0.583-0.186,0.898-0.653,1.176
		c-5.698,3.379-9.776,8.484-14.151,13.276c-1.909,2.089-3.503,4.522-5.925,6.074c-3.55,2.274-6.44,1.008-8.311-2.178
		c-1.187-2.02,0.106-3.81,1.48-5.279c3.467-3.708,7.278-7.027,11.537-9.812c0.566-0.371,1.011-0.694,0.931-1.54
		c-0.396-4.189-0.05-8.358,0.327-12.539c0.271-3.001,0.885-5.808,2.592-8.338c2.601-3.857,6.391-3.818,8.879,0.126
		c0.347,0.551,0.698,1.1,1.049,1.649C199.923,21.268,200.116,21.726,200.486,22.121z M198.17,31.071
		c0.021-2.898,0.002-5.801-0.756-8.619c-0.403-1.491-0.663-3.509-2.425-3.716c-1.689-0.199-2.315,1.674-3.073,2.991
		c-2.194,3.816-2.194,8.055-2.284,12.245c-0.023,1.085-0.264,2.144-0.063,3.324c0.267,1.568,1.158,2.811,1.502,4.306
		c0.411,1.785,0.994,1.833,2.427,0.642c1.258-1.045,2.528-2.081,3.854-3.038c1.011-0.73,2.305-1.249,0.922-2.768
		c-0.173-0.191-0.098-0.628-0.099-0.952C198.165,34.015,198.17,32.543,198.17,31.071z M191.415,43.844
		c-1.231,0-1.813-1.606-3.293-0.742c-3.513,2.05-6.643,4.562-9.537,7.401c-1.269,1.245-1.925,2.776-2.243,4.467
		c-0.16,0.844,0.084,1.625,0.846,2.169c0.712,0.508,1.282,0.026,1.796-0.311c0.91-0.598,1.872-1.192,2.599-1.985
		C184.856,51.265,188.056,47.617,191.415,43.844z"/>
	<path style="fill-rule:evenodd;clip-rule:evenodd;fill:#343434;" d="M182.378,14.467c-0.351-0.934-1.304-1.484-1.519-2.539
		c-0.156-0.765-0.102-1.252,0.744-1.409c1.18-0.02,2.104,0.31,2.604,1.528c1.539,3.743,1.538,7.411-0.375,11.025
		c-0.906,1.71-2.155,3.016-4.129,3.436c-1.598,0.341-3.197,0.672-4.802,0.973c-0.536,0.1-1.109,0.122-1.6-0.174
		c-0.5-0.302-1.175-0.583-1.103-1.28c0.071-0.71,0.794-0.603,1.303-0.721c0.37-0.084,0.735-0.203,1.108-0.247
		c5.258-0.608,7.969-3.655,7.979-8.993C182.59,15.528,182.685,14.968,182.378,14.467z"/>
	<path style="fill-rule:evenodd;clip-rule:evenodd;fill:#343434;" d="M175.6,38.649c0.073,0.501,0.182,1.25,0.29,1.999
		c0.091,0.642,0.309,1.358-0.352,1.795c-0.643,0.425-1.383,0.322-1.997-0.101c-0.639-0.439-1.124-0.971-0.898-1.903
		c0.361-1.477,0.834-2.91,1.422-4.308c0.136-0.322,0.349-0.567,0.729-0.521c0.303,0.036,0.44,0.285,0.54,0.545
		C175.606,36.877,175.755,37.616,175.6,38.649z"/>
</g>
</svg>
