<?xml version="1.0" encoding="iso-8859-1"?>
<!-- Generator: Adobe Illustrator 16.0.0, SVG Export Plug-In . SVG Version: 6.00 Build 0)  -->
<!DOCTYPE svg PUBLIC "-//W3C//DTD SVG 1.1//EN" "http://www.w3.org/Graphics/SVG/1.1/DTD/svg11.dtd">
<svg version="1.1" id="Layer_1" xmlns="http://www.w3.org/2000/svg" xmlns:xlink="http://www.w3.org/1999/xlink" x="0px" y="0px"
	 width="240px" height="155px" viewBox="0 0 240 155" style="enable-background:new 0 0 240 155;" xml:space="preserve">
<g>
	<path style="fill-rule:evenodd;clip-rule:evenodd;fill:#343434;" d="M33.047,103.172c-0.23,0.612-0.249,1.249-0.218,1.892
		c-0.261,0.403-0.241,0.838-0.146,1.282c-0.501,2.566,0.204,5.077,0.358,7.613c-0.114,1.548,0.199,3.021,0.789,4.443
		c0.05,0.217,0.101,0.433,0.151,0.649c0.042,0.215,0.083,0.431,0.125,0.646c0.061,1.075,0.619,1.966,1.064,2.898
		c1.889,5.287,4.96,9.673,9.798,12.664c4.232,2.617,8.767,1.838,13.284,1.045c0.678-0.119,1.344-0.301,2.021-0.422
		c0.247-0.044,0.564-0.067,0.625,0.29c0.053,0.308-0.152,0.532-0.425,0.568c-3.663,0.489-7.293,1.467-11.032,0.941
		c-3.307-0.466-6.104-2.002-8.511-4.29c-5.463-5.193-8.36-11.61-9.131-19.054c-0.169-1.628-0.392-3.249-0.59-4.873
		c-0.003-1.015-0.006-2.029-0.01-3.044c0.068-0.235,0.136-0.469,0.204-0.704c0.627-5.168,1.805-10.211,3.938-14.963
		c2.057-4.582,4.549-8.936,7.525-13.005c4.175-5.707,9.115-10.7,14.583-15.124c2.323-1.88,4.663-3.777,7.115-5.508
		c0.733-0.518,1.665-0.568,2.453-1.07c2.021-1.289,3.396-3.091,4.651-5.066c2.216-3.486,4.749-6.764,8.034-9.278
		c1.895-1.45,3.991-2.784,6.421-3.304c3.308-0.707,6.203,0.963,7.094,4.219c0.246,0.898,0.514,1.145,1.36,0.928
		c3.429-0.882,6.86-1.731,10.382-2.214c1.731-0.237,1.929-2.084,2.571-3.287c1.465-2.745,2.844-5.54,4.462-8.199
		c0.357-0.586,0.754-1.746,1.731-1.218c1.02,0.551,0.158,1.442-0.121,2.083c-1.12,2.571-2.75,4.884-3.821,7.492
		c-0.726,1.768-0.253,2.647,1.636,2.563c4.621-0.209,9.216,0.027,13.779,0.776c1.277,0.21,2.391-0.028,3.42-0.785
		c0.979-0.72,1.972-1.419,2.953-2.135c0.951-0.692,1.863-1.413,1.535-2.954c1.458,1.35,1.559,2.249,0.393,3.283
		c-0.906,0.806-1.933,1.476-2.896,2.22c-0.315,0.244-0.854,0.385-0.735,0.91c0.092,0.41,0.578,0.435,0.914,0.535
		c3.038,0.917,6.109,1.738,9.012,3.054c6.615,2.998,12.471,6.954,16.664,13.06c0.674,0.982,0.845,2.711,2.008,2.831
		c0.998,0.102,1.623-1.503,2.587-2.148c1.229-0.823,2.48-1.616,3.722-2.422c0.667-0.09,1.337-0.17,1.898-0.596
		c0.215-0.053,0.43-0.105,0.644-0.159c1.738-0.075,3.437,0.148,5.097,0.666c0.283,0.172,0.567,0.344,0.85,0.516
		c0.459,0.515,0.917,1.029,1.375,1.543c0.123,0.215,0.245,0.43,0.368,0.645c0.107,0.568,0.297,1.102,0.657,1.563
		c0.063,0.319,0.127,0.64,0.19,0.959c0.156,1.836,0.105,3.658-0.409,5.443c-0.114,0.397-0.406,0.865,0.001,1.165
		c0.434,0.318,0.921,0.029,1.302-0.255c1.4-1.045,3.014-1.705,4.526-2.545c0.757-0.421,1.805-0.36,2.236-1.327
		c0.135-0.103,0.27-0.205,0.403-0.308c-0.002-0.001,0.02-0.009,0.02-0.009c0.457,0.121,0.867-0.007,1.256-0.241
		c5.611-2.604,11.504-4.472,17.336-6.478c1.729-0.594,3.667,0.05,5.511,0.067c0.382,0.004,0.676,0.321,0.749,0.723
		c0.102,0.551-0.232,0.94-0.648,1.174c-1.609,0.902-2.994,2.163-4.777,2.798c-4.057,1.443-8.001,3.185-12.1,4.524
		c-1.083,0.354-2.21,0.508-3.293,0.945c-0.873,0.353-1.336,0.733-1.509,1.543c-0.907,4.254-3.727,7.238-6.728,10.077
		c-2.191,2.075-4.604,3.891-7.195,5.441c-0.57,0.342-1.121,1.02-2.129,0.566c3.016-1.938,5.838-3.953,8.322-6.383
		c2.604-2.547,5.16-5.146,6.362-8.723c0.133-0.396,0.446-0.834,0.17-1.2c-0.369-0.488-0.888-0.103-1.315,0.007
		c-2.256,0.579-4.511,1.163-6.75,1.8c-1.953,0.554-3.494,1.598-4.421,3.53c-2.042,4.256-4.437,8.299-7.687,11.773
		c-0.781,0.835-1.705,2.127-2.817,1.437c-1.161-0.721,0.054-1.923,0.41-2.801c1.702-4.186,4.528-7.603,7.662-10.788
		c0.32-0.326,0.827-0.512,0.89-1.394c-1.846,1.198-3.553,2.258-5.207,3.393c-1.912,1.312-3.687,2.854-5.692,3.995
		c-2.235,1.271-3.322,3.309-4.376,5.434c-1.041,2.097-2.389,3.982-3.842,5.802c-0.32,0.401-0.641,0.847-1.405,0.854
		c0.921-2.386,2.918-4.036,3.819-6.324c0.093-0.181,0.189-0.388-0.023-0.519c-0.083-0.051-0.262,0.053-0.396,0.086
		c-3.881,3.089-7.705,6.227-10.881,10.091c-1.571,1.911-3.508,3.528-4.889,5.598c-3.244,4.864-6.866,9.507-9.043,15.019
		c-0.152,0.386-0.445,0.716-0.665,1.077c-0.715,1.176-0.738,2.031,0.523,3.076c2.481,2.057,3.524,4.829,2.884,8.082
		c-0.658,3.34-2.479,5.918-5.32,7.755c-1.787,1.156-3.164,0.551-3.574-1.59c-0.639-3.336,0.257-6.518,1.164-9.675
		c0.395-1.371,0.867-2.725,1.399-4.048c0.433-1.073,0.167-1.657-0.921-2.055c-7.047-2.571-14.28-4.307-21.782-4.745
		c-3.152-0.185-6.305-0.768-9.485-0.147c-0.588,0.114-1.414-0.184-1.398-0.962c0.016-0.752,0.795-0.546,1.274-0.519
		c5.061,0.297,10.111,0.523,15.134,1.458c5.643,1.049,11.224,2.227,16.628,4.181c0.797,0.288,1.584,0.305,2.009-0.645
		c2.408-5.373,5.528-10.325,8.905-15.127c0.084-0.117,0.077-0.3,0.113-0.452c0.43-0.168,0.735-0.439,0.781-0.93
		c0.487-0.344,0.814-0.805,1-1.368c0.277-0.187,0.66-0.271,0.685-0.703c0.414-0.099,0.683-0.3,0.547-0.784
		c0.75-0.646,1.407-1.369,1.885-2.246c1.353-1.641,3.192-2.807,4.44-4.55c3.557-3.077,7.223-6.041,10.625-9.281
		c1.678-1.6,1.889-4.092,2.432-6.288c0.467-1.888,0.771-3.624-1.015-5.352c-1.532-1.481-1.29-3.751-0.444-5.695
		c0.5-1.147,0.375-2.096-0.185-3.147c-1.251-2.354-2.722-4.541-4.645-6.395c-4.532-4.366-9.847-7.445-15.772-9.505
		c-0.297-0.224-0.635-0.265-0.992-0.221c-1.785-0.934-3.741-1.293-5.686-1.693c-0.224-0.058-0.447-0.114-0.672-0.172
		c-1.005-0.473-1.902-0.263-2.859,0.259c-3.762,2.051-7.775,2.99-12.065,2.452c-2.259-0.282-4.108-1.234-5.302-3.311
		c-0.685-1.19-2.956-1.005-3.576,0.239c-2.366,4.749-5.489,8.994-8.728,13.163c-0.418,0.539-0.809,1.11-1.289,1.589
		c-0.447,0.447-0.993,0.861-1.697,0.522c-0.716-0.344-0.925-0.991-0.87-1.727c0.126-1.683,0.284-3.364,0.418-5.047
		c0.138-1.742-0.008-3.46-0.224-5.198c-0.148-1.193-0.55-1.299-1.5-0.969c-4.596,1.596-9.165,3.26-13.524,5.44
		c-2.316,1.159-4.601,2.382-6.925,3.524c-0.945,0.465-1.621,1.114-2.063,2.065c-1.07,2.302-1.694,4.733-2.032,7.23
		c-0.239,1.771,0.416,2.592,2.267,2.698c2.427,0.142,4.865,0.088,7.298,0.126c0.439,0.007,1.12-0.223,1.098,0.491
		c-0.015,0.501-0.66,0.439-1.055,0.43c-2.697-0.066-5.399-0.08-8.087-0.28c-1.786-0.133-2.589-1.301-2.386-3.076
		c0.257-2.248,0.618-4.474,1.612-6.544c0.132-0.274,0.328-0.663-0.023-0.833c-0.227-0.11-0.687-0.038-0.886,0.134
		c-2.358,2.036-5.136,3.501-7.512,5.501c-2.699,2.27-5.416,4.531-7.954,6.974c-1.935,1.862-3.655,3.958-5.379,6.026
		c-3.356,4.026-6.109,8.456-8.366,13.178c-1.935,4.048-3.49,8.24-4.154,12.713C33.122,101.844,33.001,102.492,33.047,103.172z
		 M164.76,71.68c2.402,0.205,4.791-0.618,7.24-0.967c0.546-0.078,1.033-0.353,1.242-0.881c1.033-2.603,2.008-5.223,1.366-8.108
		c-0.526-2.368-2.196-3.911-4.612-4.126c-4.188-0.372-7.243,1.781-10.008,4.573c-0.834,0.842-1.121,1.711-0.66,2.855
		c0.436,1.082,0.608,2.241,0.721,3.403c0.302,3.094,0.544,3.313,3.642,3.305C164.008,71.734,164.324,71.703,164.76,71.68z
		 M92.402,43.433c-0.096-2.892-3.302-5.071-6.231-4.201c-2.794,0.829-5.096,2.486-7.29,4.35c-2.804,2.382-5.076,5.217-7.219,8.174
		c-0.245,0.338-0.582,0.731-0.214,1.119c0.347,0.367,0.808,0.126,1.165-0.084c0.543-0.32,1.015-0.779,1.581-1.043
		c5.583-2.605,11.061-5.465,17.054-7.084C91.864,44.496,92.467,44.254,92.402,43.433z M94.11,52.275
		c0,1.162-0.004,2.325,0.003,3.487c0.002,0.305-0.095,0.688,0.224,0.861c0.438,0.238,0.663-0.186,0.905-0.431
		c1.667-1.683,3.063-3.574,4.371-5.548c1.514-2.285,3.135-4.5,4.692-6.758c0.232-0.337,0.528-0.723,0.32-1.166
		c-0.172-0.366-0.541-0.225-0.844-0.174c-2.705,0.462-5.419,0.883-8.052,1.688c-1.74,0.533-2.218,1.114-1.771,2.847
		C94.408,48.824,94.154,50.546,94.11,52.275z M124.016,132.501c0.057,0.729,0.051,1.369,0.164,1.988
		c0.174,0.942,0.754,1.27,1.604,0.759c4.686-2.814,7.013-8.772,3.415-13.504c-0.465-0.611-0.941-1.438-1.837-1.283
		c-0.846,0.146-0.649,1.104-0.886,1.709c-0.363,0.934-0.662,1.892-0.996,2.837C124.613,127.463,124.273,130.019,124.016,132.501z
		 M205.265,58.525c-0.397,0.07-0.921,0.146-1.436,0.256c-3,0.639-5.942,1.511-8.826,2.527c-3.034,1.07-5.995,2.352-8.97,3.585
		c-0.476,0.197-1.316,0.456-0.885,1.191c0.355,0.607,0.904,1.362,1.898,0.856c0.369-0.188,0.76-0.343,1.152-0.479
		c4.674-1.608,9.361-3.176,13.939-5.049c1.229-0.502,2.412-1.075,3.515-1.81c0.29-0.192,0.745-0.35,0.578-0.814
		C206.098,58.42,205.689,58.581,205.265,58.525z M124.918,42.653c-4.544-0.951-9.013-1.072-13.5-0.9
		c-0.503,0.019-1.163-0.125-1.377,0.508c-0.217,0.639,0.25,1.083,0.702,1.471c1.744,1.492,3.829,1.611,5.986,1.53
		c2.521-0.095,4.821-1.124,7.243-1.635C124.39,43.539,124.697,43.231,124.918,42.653z M168.455,73.277
		c-0.05-0.157-0.101-0.315-0.15-0.473c-2.479,0.134-4.955,0.284-7.399-0.238c-0.719-0.154-0.86,0.464-0.882,1.028
		c-0.051,1.337-0.473,2.599-0.732,3.894c-0.146,0.731-1.008,1.679-0.271,2.168c0.858,0.571,1.211-0.705,1.808-1.141
		c0.385-0.28,0.737-0.607,1.131-0.874C164.119,76.18,166.289,74.73,168.455,73.277z M169.665,77.011
		c-2.739,2.546-4.606,5.752-6.616,8.855C166.102,83.556,168.071,80.435,169.665,77.011z M158.32,65.193
		c-1.012,1.571-1.119,3.492-0.334,4.398c0.205,0.237,0.431,0.51,0.783,0.418c0.412-0.107,0.323-0.499,0.309-0.787
		C159.01,67.887,158.886,66.559,158.32,65.193z M108.335,38.041c-0.497,0.899-0.848,1.471-1.13,2.075
		c-0.124,0.266-0.771,0.518-0.208,0.858c0.445,0.271,1,0.113,1.162-0.422C108.366,39.868,108.593,39.152,108.335,38.041z
		 M181.666,68.522c0.824-0.29,1.648-0.579,2.473-0.869C183.167,67.499,182.34,67.78,181.666,68.522z"/>
	<path style="fill-rule:evenodd;clip-rule:evenodd;fill:#343434;" d="M161.639,114.323c0.055-0.669,0.339-1.131,0.958-1.499
		c0.812-0.483,1.424-1.239,2.118-1.884c1.038-0.965,0.266-1.838-0.064-2.628c-0.237-0.563-0.605,0.064-0.936,0.266
		c-0.631,0.386-1.086,1.845-1.959,0.903c-0.889-0.956,0.467-1.532,1.029-2.053c1.91-1.766,2.758-1.276,3.582,1.207
		c0.47,1.418,0.87,2.793,1.013,4.262c0.052,0.531,0.503,0.612,0.857,0.821c0.858,0.506,1.042,1.276,0.794,2.186
		c-0.088,0.323-0.309,0.574-0.649,0.619c-0.353,0.047-0.604-0.118-0.674-0.502c-0.21-1.141-0.681-0.817-1.214-0.219
		c-0.33,0.371-0.721,0.719-1.213,0.305c-0.495-0.419-0.152-0.863,0.095-1.265c0.165-0.268,0.414-0.492,0.544-0.773
		c0.23-0.503,0.28-1.115-0.159-1.451c-0.419-0.321-0.728,0.247-1.05,0.474c-0.939,0.656-1.609,1.991-3.105,1.194L161.639,114.323z"
		/>
	<path style="fill-rule:evenodd;clip-rule:evenodd;fill:#343434;" d="M174.18,125.567c0.727,0.047,1.119,0.701,1.279,1.438
		c0.193,0.887,1.344,1.808,0.166,2.693c-0.604,0.454-0.652,0.866-0.197,1.266c0.582,0.51,0.764-0.209,1.068-0.509
		c0.387-0.38,0.688-1.188,1.357-0.711c0.613,0.438,0.166,1.083-0.166,1.542c-0.99,1.372-2.011,2.723-3.049,4.059
		c-0.41,0.527-1.002,1.001-1.617,0.459c-0.783-0.691,0.128-1.074,0.475-1.515c0.473-0.603,1.344-1.101,0.762-2.018
		c-0.656-1.033-0.726-2.603-2.35-2.813c-0.533-0.069-0.92-0.208-0.965-0.817C170.871,127.694,173.023,125.519,174.18,125.567z
		 M173.632,127.667c-0.502,0.161-0.696,0.595-0.817,1.045c-0.115,0.435,0.154,0.58,0.527,0.454c0.416-0.14,1.005-0.171,0.872-0.858
		C174.156,128.01,174.051,127.69,173.632,127.667z"/>
	<path style="fill-rule:evenodd;clip-rule:evenodd;fill:#343434;" d="M154.195,117.731c-0.693,0.322-0.654,1.024-1.029,1.443
		c-0.223,0.248-0.459,0.467-0.811,0.306c-0.354-0.162-0.379-0.498-0.277-0.812c0.375-1.17,0.902-2.283,1.809-3.116
		c0.748-0.686,1.437-0.59,1.752,0.521c0.094,0.334-0.023,0.768,0.518,1.028c0.275-0.792,1.049-1.444,0.342-2.393
		c-0.225-0.301-0.482-0.659-0.074-0.956c0.426-0.309,0.969-0.304,1.277,0.143c0.84,1.209,1.72,2.411,2.092,3.872
		c0.088,0.349,0.135,0.773-0.296,0.965c-0.461,0.205-0.624-0.19-0.859-0.476c-0.28-0.337-0.445-1.191-1.115-0.42
		c-0.468,0.538-0.619,1.126,0.146,1.588c0.181,0.109,0.368,0.207,0.544,0.324c0.311,0.206,0.678,0.424,0.484,0.871
		c-0.199,0.456-0.62,0.356-0.955,0.202c-0.84-0.387-1.589-0.69-1.751,0.687c-0.027,0.231-0.355,0.384-0.649,0.299
		c-0.367-0.105-0.422-0.436-0.489-0.744C154.613,119.974,154.826,118.781,154.195,117.731z"/>
	<path style="fill-rule:evenodd;clip-rule:evenodd;fill:#343434;" d="M189.088,96.931c-0.03,2.226-0.805,2.76-2.809,1.906
		c-0.328-0.14-0.614-0.234-0.825,0.097c-0.387,0.605-0.951,1.126-0.806,1.981c0.108,0.635,1.12,1.52,0.065,1.858
		c-0.851,0.273-1.089-0.916-1.408-1.611c-0.595-1.294-1.171-2.596-1.769-3.888c-0.182-0.392-0.451-0.813,0.074-1.086
		c0.459-0.238,0.791,0.125,1.063,0.456c0.132,0.159,0.187,0.381,0.313,0.545c0.313,0.407,0.246,1.373,1.051,1.061
		c0.584-0.227,1.236-0.778,1.123-1.572c-0.227-1.602,0.615-2.111,2.001-2.106C188.445,94.576,189.109,95.414,189.088,96.931z
		 M187.772,96.535c-0.035-0.279,0.006-0.714-0.528-0.707c-0.48,0.007-0.59,0.375-0.567,0.775c0.024,0.412,0.015,0.995,0.521,1.002
		C187.697,97.613,187.699,97.032,187.772,96.535z"/>
	<path style="fill-rule:evenodd;clip-rule:evenodd;fill:#343434;" d="M195.93,94.591c0.205-0.033,0.416-0.047,0.615-0.103
		c0.439-0.121,0.94-0.503,1.293,0.017c0.341,0.501-0.143,0.864-0.429,1.232c-0.092,0.117-0.152,0.259-0.228,0.391
		c1.795,0.934,1.807,1.015,0.582,4.216c0.465,0.255,0.649-0.191,0.918-0.382c0.389-0.276,0.797-0.7,1.243-0.249
		c0.515,0.52,0.042,0.973-0.295,1.368c-0.562,0.657-1.272,1.423-2.129,1.066c-0.958-0.398-2.084-0.793-2.529-1.934
		c-0.352-0.898-0.505-1.845-1.485-2.434c-0.667-0.4-0.119-0.872,0.304-1.236c0.736-0.634,1.732-0.987,2.153-1.966L195.93,94.591z"/>
	<path style="fill-rule:evenodd;clip-rule:evenodd;fill:#343434;" d="M183.782,125.545c-0.794-0.048-1.392-0.282-1.601-0.978
		c-0.184-0.612-0.852-1.123-0.918-1.447c-0.252-1.256-0.25-2.618-0.025-3.886c0.081-0.466,0.964-0.222,1.275,0.287
		c0.429,0.702,0.828,1.345,1.806,1.28c0.339-0.022,0.671,0.263,0.526,0.616c-0.527,1.273,2.243,2.769-0.269,3.876
		C184.293,125.419,183.982,125.483,183.782,125.545z"/>
	<path style="fill-rule:evenodd;clip-rule:evenodd;fill:#343434;" d="M192.416,125.042c-0.017,0.519-0.232,0.798-0.617,0.93
		c-0.521,0.179-1.049,0.002-1.25-0.427c-1.314-2.819-2.814-5.533-4.468-8.165c-0.152-0.241-0.194-0.55,0.026-0.719
		c0.183-0.141,0.494-0.204,0.729-0.168c0.656,0.104,0.883,0.692,1.189,1.179c1.428,2.271,2.459,4.782,4.143,6.901
		C192.295,124.731,192.361,124.937,192.416,125.042z"/>
	<path style="fill-rule:evenodd;clip-rule:evenodd;fill:#343434;" d="M195.943,94.578c-0.076-0.069-0.188-0.214-0.222-0.197
		c-2.523,1.216-3.261-0.993-4.435-2.325c-0.434-0.49-0.11-0.896,0.311-1.188c0.692-0.481,1.408-0.934,2.121-1.386
		c0.27-0.171,0.583-0.338,0.873-0.086c0.347,0.301,0.233,0.707,0.041,1.018c-0.248,0.398-0.617,0.721-0.887,1.109
		c-0.29,0.419-0.398,0.915,0.007,1.303c0.396,0.377,0.789,0.078,1.124-0.184c0.332-0.26,0.627-0.571,0.963-0.824
		c0.303-0.228,0.643-0.403,0.992-0.054c0.357,0.356,0.079,0.667-0.047,1.008c-0.232,0.633-1.273,0.885-0.855,1.818
		C195.93,94.591,195.943,94.578,195.943,94.578z"/>
	<path style="fill-rule:evenodd;clip-rule:evenodd;fill:#343434;" d="M177.791,100.495c-0.088-0.864-0.047-1.602,0.952-1.911
		c0.919-0.285,1.495,0.127,2.046,0.775c1.188,1.399,1.576,2.956,0.967,4.706c-0.212,0.609-0.542,1.181-1.293,1.227
		c-0.714,0.045-1.203-0.374-1.529-0.946C178.249,103.145,177.705,101.891,177.791,100.495z M179.747,99.892
		c-0.474,1.202-0.302,2.08,0.038,2.956c0.082,0.211,0.228,0.357,0.457,0.326c0.248-0.034,0.321-0.256,0.32-0.466
		C180.559,101.824,180.417,100.972,179.747,99.892z"/>
	<path style="fill-rule:evenodd;clip-rule:evenodd;fill:#343434;" d="M182.385,132.231c-0.076,1.896-0.807,2.983-1.982,2.951
		c-1.125-0.03-2-1.263-1.902-2.681c0.082-1.222,1.258-2.359,2.424-2.287C182.196,130.294,182.426,131.178,182.385,132.231z
		 M180.402,133.734c0.522-0.895,0.609-1.476,0.283-2.071c-0.111-0.202-0.43-0.179-0.553-0.017
		C179.672,132.256,180.035,132.801,180.402,133.734z"/>
	<path style="fill-rule:evenodd;clip-rule:evenodd;fill:#343434;" d="M175.477,122.568c0.967,0.144,1.168,1.03,1.623,1.634
		c0.615,0.819,1.093,1.786,2.312,0.768c0.241-0.202,0.616-0.184,0.853,0.107c0.227,0.279,0.209,0.624-0.016,0.874
		c-0.672,0.751-1.096,1.52-0.563,2.548c0.141,0.272,0.086,0.64-0.305,0.774c-0.356,0.122-0.611-0.075-0.809-0.337
		c-0.535-0.711-1.1-1.387-1.529-2.191c-0.565-1.062-1.34-2.011-2.017-3.013c-0.173-0.256-0.386-0.521-0.202-0.862
		C174.971,122.598,175.23,122.573,175.477,122.568z"/>
	<path style="fill-rule:evenodd;clip-rule:evenodd;fill:#343434;" d="M175.927,108.41c-0.015,0.587-0.101,1.031-0.626,1.095
		c-0.605,0.073-0.82-0.393-0.926-0.879c-0.387-1.792-1.137-3.394-2.402-4.739c-0.267-0.284-0.48-0.629-0.105-0.957
		c0.315-0.276,0.734-0.222,1.023,0.033C174.582,104.449,175.497,106.369,175.927,108.41z"/>
	<path style="fill-rule:evenodd;clip-rule:evenodd;fill:#343434;" d="M171.443,109.812c-1.457,0.213-2.491-0.319-2.947-1.751
		c-0.232-0.733-0.23-1.488,0.439-2.034c0.626-0.51,1.356-0.574,2.092-0.271c0.797,0.327,1.008,1.021,1.026,1.807
		c0.019,0.821-0.432,1.513-0.634,2.272L171.443,109.812z M170.269,107.098c-0.301,0.111-0.327,0.356-0.281,0.619
		c0.038,0.214,0.174,0.398,0.401,0.344c0.311-0.073,0.32-0.354,0.283-0.613C170.641,107.226,170.51,107.092,170.269,107.098z"/>
	<path style="fill-rule:evenodd;clip-rule:evenodd;fill:#343434;" d="M189.486,91.777c0.156,0.122,0.432,0.237,0.541,0.44
		c0.793,1.483,1.502,3.006,1.934,4.641c0.084,0.313,0.117,0.641-0.271,0.796c-0.354,0.142-0.684-0.021-0.811-0.302
		c-0.732-1.62-1.446-3.25-2.109-4.899C188.582,91.985,188.982,91.826,189.486,91.777z"/>
	<path style="fill-rule:evenodd;clip-rule:evenodd;fill:#343434;" d="M188.053,126.94c-0.163,0.22-0.357,0.529-0.599,0.796
		c-0.888,0.983-1.888,1.84-3.072,2.437c-0.473,0.238-1.087,0.288-1.374-0.317c-0.247-0.521,0.238-0.756,0.605-0.938
		c1.205-0.595,2.1-1.57,3.078-2.443c0.287-0.255,0.604-0.435,1.004-0.278C187.979,126.309,188.059,126.549,188.053,126.94z"/>
	<path style="fill-rule:evenodd;clip-rule:evenodd;fill:#343434;" d="M161.605,114.286c-0.078,1,0.564,1.775,0.822,2.669
		c0.131,0.454,0.234,1.012-0.354,1.209c-0.498,0.169-0.781-0.28-0.924-0.669c-0.693-1.899-1.645-3.63-3.1-5.063
		c-0.223-0.219-0.43-0.498-0.11-0.815c0.315-0.314,0.702-0.245,1.032-0.095c0.65,0.294,0.959,0.95,1.41,1.456
		c0.408,0.457,0.545,1.168,1.255,1.344C161.639,114.323,161.605,114.286,161.605,114.286z"/>
	<path style="fill-rule:evenodd;clip-rule:evenodd;fill:#343434;" d="M171.42,109.834c0.525,0.395,0.729-0.144,1.028-0.367
		c0.321-0.24,0.606-0.739,1.05-0.328c0.368,0.341,0.143,0.802-0.072,1.167c-0.676,1.155-1.588,2.097-2.758,2.751
		c-0.428,0.239-0.973,0.269-1.248-0.251c-0.258-0.481,0.172-0.727,0.498-1.006c0.645-0.551,1.764-0.756,1.525-1.988L171.42,109.834z
		"/>
	<path style="fill-rule:evenodd;clip-rule:evenodd;fill:#343434;" d="M117.396,27.897c2.939,0.502,5.054-1.231,7.16-2.786
		c1.811-1.335,3.665-2.71,4.4-5.042c0.116-0.367,0.516-0.661,0.822-0.949c0.344-0.322,0.757-0.401,1.142-0.065
		c0.325,0.283,0.326,0.654,0.131,1.013c-0.202,0.372-0.44,0.723-0.652,1.089c-0.752,1.298-0.235,2.267,1.271,2.39
		c1.634,0.134,4.943-1.891,5.611-3.424c0.184-0.422,0.271-0.899-0.125-1.161c-0.744-0.493-1.59-0.972-2.49-0.469
		c-0.646,0.363-1.264,0.697-2.43,0.852c1.088-1.454,2.144-2.177,3.595-2.177c1.386,0,2.294,0.814,2.744,2.041
		c0.486,1.327-0.163,2.325-1.174,3.17c-0.565,0.473-1.06,1.03-1.587,1.55c-0.474,0.124-0.911,0.314-1.251,0.683
		c-0.419,0.134-0.838,0.268-1.257,0.401c-1.169,0.04-2.493,0.147-3.267-0.791c-1.236-1.5-1.995-0.853-2.823,0.295
		c-1.639,1.158-3.225,2.4-4.924,3.459c-3.961,2.468-7.223,1.137-8.458-3.374c-0.223-0.817-0.368-1.66-0.658-2.451
		c-0.607-1.659-1.445-2.119-3.053-1.466c-3.788,1.537-7.346,3.491-10.385,6.279c-0.535,0.49-1.232,0.986-0.948,1.855
		c0.247,0.756,1.013,0.834,1.674,1.001c0.343,0.087,0.738,0.086,0.994,0.612c-1.295,0.319-2.364-0.23-3.243-0.825
		c-0.701-0.474-0.537-1.373-0.013-2.134c1.249-1.811,3.247-2.659,4.924-3.915c0.969-0.726,2.042-1.313,3.068-1.964
		c0.948-0.447,1.881-0.929,2.848-1.334c2.684-1.125,3.585-0.84,5.087,1.537c0.068,0.231,0.138,0.464,0.207,0.695
		c0.141,1.199,0.395,2.387,0.91,3.469C115.677,26.86,116.021,27.99,117.396,27.897z"/>
</g>
</svg>
