<?xml version="1.0" encoding="iso-8859-1"?>
<!-- Generator: Adobe Illustrator 16.0.0, SVG Export Plug-In . SVG Version: 6.00 Build 0)  -->
<!DOCTYPE svg PUBLIC "-//W3C//DTD SVG 1.1//EN" "http://www.w3.org/Graphics/SVG/1.1/DTD/svg11.dtd">
<svg version="1.1" id="Layer_1" xmlns="http://www.w3.org/2000/svg" xmlns:xlink="http://www.w3.org/1999/xlink" x="0px" y="0px"
	 width="120px" height="120px" viewBox="0 0 120 120" style="enable-background:new 0 0 120 120;" xml:space="preserve">
<g>
	<path style="fill-rule:evenodd;clip-rule:evenodd;fill:#343434;" d="M79.596,116.227c-13.531,0.352-27.04-0.721-40.553-0.758
		c-9.638-0.023-19.298-0.113-28.932,0.615c-5.238,0.387-8.026-2.266-7.986-8.209c0.106-15.854-0.202-31.699,0.376-47.552
		c0.444-12.461,0.557-24.94,1.063-37.403c0.165-3.937,0.907-7.849,1.239-11.785C5.038,8.26,6.761,6.603,9.208,5.864
		c3.886-1.173,7.798-2.33,11.992-1.943c7.786,0.711,15.583,0.395,23.393,0.315c9.984-0.108,19.983-0.516,30-0.106
		c4.909,0.201,9.938,1.056,15.096-0.029c4.285-0.897,9.024-0.086,13.488,0.548c2.295,0.326,4.378-0.223,6.564-0.235
		c3.027-0.02,4.729,1.126,5.479,4.168c1.044,4.205,1.559,8.343,1.469,12.737c-0.229,10.924,0.123,21.847,1.037,32.766
		c0.543,6.459-0.564,13.009-0.6,19.534c-0.049,11.867-0.484,23.729-0.73,35.596c-0.113,5.148-1.063,5.77-6.072,6.371
		C100.086,116.795,89.829,115.789,79.596,116.227z M54.467,110.23c16.758,0.688,33.284-1.283,49.809-0.008
		c2.374,0.188,3.719-1.266,3.815-3.221c0.353-7.426,1.885-14.793,1.368-22.234c-0.36-5.195-1.423-10.504-1.134-15.578
		c1.025-18.396,0.746-36.75,0.13-55.129c-0.078-2.376-1.284-3.039-3.357-2.887c-7.896,0.581-15.795-0.051-23.696-0.054
		c-18.76-0.014-37.522,0.08-56.285,0.715c-3.498,0.12-6.994,0.137-10.492,0.097c-1.859-0.019-3.345,0.513-3.677,2.445
		c-0.416,2.397-0.759,4.847-0.74,7.271c0.052,5.327,0.618,10.656,0.494,15.974C10.424,48.668,9.321,59.729,9.54,70.76
		c0.204,9.996,0.555,20.012,0.541,30.025c-0.009,8.105,0.32,8.453,8.606,8.756c0.235,0.008,0.468,0.008,0.698,0.018
		C31.158,109.818,42.908,110.801,54.467,110.23z"/>
	<path style="fill-rule:evenodd;clip-rule:evenodd;fill:#343434;" d="M42.537,17.853c8.623,0.083,17.234,0.139,25.85-0.501
		c2.633-0.197,5.334,0.319,7.988,0.67c6.181,0.825,12.313-0.268,18.469-0.372c5.887-0.099,6.911,1.12,6.735,6.555
		c-0.2,6.389,0.298,12.83,0.331,19.186c0.045,6.707,1.208,13.579-0.426,20.292c-1.051,4.316-3.192,5.6-7.391,4.152
		c-2.529-0.869-5.068-0.729-7.605-0.381c-4.191,0.582-8.319,0.414-12.532,0.004c-5.515-0.521-11.077-0.516-16.624,0.283
		c-3.07,0.438-6.364,0.225-9.295-0.188c-4.027-0.564-7.829,1.166-11.738,0.178c-1.385-0.348-2.302,0.588-2.617,1.787
		c-1.307,4.912,0.209,9.615,1.49,14.273c0.383,1.373,1.97,1.482,3.303,1.42c11.061-0.475,22.124,0.781,33.143,0.344
		c8.271-0.32,16.526-0.297,24.785-0.441c4.956-0.09,5.464,0.746,5.522,5.68c0.028,2.666,0.301,5.309-0.085,7.992
		c-0.275,1.834-0.982,3.174-2.917,3.344c-2.549,0.225-5.18,0.695-7.65,0.291c-4.567-0.738-9.003-0.361-13.479,0.381
		c-1.525,0.258-3.019,0.07-4.487-0.404c-2.603-0.838-5.309-0.203-7.885-0.4c-6.501-0.461-12.933,1.57-19.384,0.203
		c-1.617-0.334-3.192-0.447-4.843-0.203c-6.937,1.053-13.978-0.518-20.927,0.768c-1.652,0.295-2.577-0.828-2.861-2.418
		c-0.957-5.383-0.844-10.842-1.044-16.277c-0.049-1.504,0.454-3.037,0.289-4.518c-0.891-8.369,0.428-16.734,0.08-25.115
		c-0.221-5.198,0.757-6.293,5.823-5.597c8.966,1.234,17.831,0.969,26.778-0.007c3.658-0.399,7.387,0.672,11.148,0.532
		c7.793-0.299,15.601-0.414,23.399-0.478c1.866-0.007,2.167-1.001,2.179-2.392c0.023-3.385-0.025-6.762-0.023-10.147
		c0.005-2.183-1.191-2.835-3.174-2.621c-11.279,1.229-22.597,0.342-33.893,0.509c-8.052,0.117-15.998,1.428-24.047,1.495
		c-6.792,0.054-7.276-0.208-8.402-6.827c-0.099-0.575-0.247-1.145-0.301-1.723c-0.767-7.882,0.383-9.236,8.129-9.315
		C30.408,17.803,36.476,17.853,42.537,17.853z"/>
</g>
</svg>
