<?xml version="1.0" encoding="iso-8859-1"?>
<!-- Generator: Adobe Illustrator 16.0.0, SVG Export Plug-In . SVG Version: 6.00 Build 0)  -->
<!DOCTYPE svg PUBLIC "-//W3C//DTD SVG 1.1//EN" "http://www.w3.org/Graphics/SVG/1.1/DTD/svg11.dtd">
<svg version="1.1" id="Layer_1" xmlns="http://www.w3.org/2000/svg" xmlns:xlink="http://www.w3.org/1999/xlink" x="0px" y="0px"
	 width="240px" height="155px" viewBox="0 0 240 155" style="enable-background:new 0 0 240 155;" xml:space="preserve">
<g>
	<path style="fill-rule:evenodd;clip-rule:evenodd;fill:#343434;" d="M28.797,91.299c-4.79,0.846-6.604-0.561-6.639-4.918
		c-0.039-4.803-0.083-9.607,0.017-14.409c0.051-2.443-0.963-3.42-3.357-3.36c-3.273,0.083-6.55,0.021-9.767,0.021
		c-0.773-4.08,0.811-5.823,5.079-5.826c18.27-0.013,36.539-0.005,54.809-0.004c11.583,0,23.167,0.073,34.749-0.032
		c4.978-0.045,8.668,1.829,11.335,6.055c2.841,4.503,5.882,8.879,8.837,13.311c0.259-0.053,0.518-0.104,0.776-0.156
		c0-1.723-0.001-3.447,0-5.171c0.003-3.203-0.066-6.406,0.027-9.606c0.101-3.362,1.658-4.563,5.451-4.101
		c0,3.503-0.001,7.057,0,10.61c0,4.426-0.002,8.852,0.007,13.28c0.005,2.113,0.102,4.352-2.538,5.021
		c-2.643,0.674-4.944-0.232-6.42-2.465c-2.44-3.688-4.666-7.518-6.975-11.291c-6.335-10.354-4.99-9.643-17.101-9.635
		c-21.377,0.014-42.755,0.004-64.133,0.002c-3.895,0-4.145,0.23-4.154,4.163C28.788,78.98,28.797,85.172,28.797,91.299z"/>
	<path style="fill-rule:evenodd;clip-rule:evenodd;fill:#343434;" d="M155.354,91.35c-4.932,0.723-6.686-0.748-6.69-5.289
		c-0.006-4.799-0.046-9.601,0.027-14.4c0.035-2.179-0.896-3.078-3.039-3.039c-3.365,0.061-6.732,0.016-10.04,0.016
		c-0.723-4.169,0.793-5.819,5.122-5.824c113.555-0.096-53.893,0,60.713-0.012c8.754-0.001,17.508-0.012,26.262,0.001
		c4.063,0.006,5.378,1.344,5.403,5.428c0.016,2.259,0.051,4.519-0.001,6.778c-0.079,3.533-1.476,4.923-5.044,4.947
		c-6.212,0.039-12.425,0-18.637,0.02c-3.401,0.012-3.743,0.369-3.773,3.697c-0.009,0.846,0.004,1.693-0.007,2.539
		c-0.055,4.297-1.544,5.619-6.163,5.279c0-4.736-0.193-9.508,0.083-14.25c0.136-2.324,2.192-3.074,4.386-3.076
		c6.4-0.003,12.801-0.022,19.202,0c1.944,0.008,3.565-0.112,3.616-2.74c0.051-2.641-1.53-2.805-3.504-2.802
		c-21.462,0.021-42.924,0.05-64.386-0.02c-2.742-0.009-3.631,1.026-3.563,3.685c0.139,5.455,0.035,10.918,0.032,16.375
		C155.353,89.576,155.354,90.488,155.354,91.35z"/>
	<path style="fill-rule:evenodd;clip-rule:evenodd;fill:#343434;" d="M93.385,74.209c0,1.966,0,3.71,0,5.765
		c-5.632,0-11.077,0.053-16.521-0.027c-2.178-0.031-3.386,0.945-2.997,2.994c0.18,0.953,1.481,2.395,2.304,2.414
		c7.53,0.191,15.066,0.127,22.601,0.115c1.989-0.004,2.496-1.248,2.473-3.004c-0.047-3.459-0.014-6.917-0.014-10.32
		c4.542-0.58,5.584,0.262,5.606,4.253c0.021,3.579,0.058,7.161-0.003,10.737c-0.052,3.021-1.516,4.5-4.56,4.51
		c-10.171,0.039-20.344,0.041-30.515-0.012c-3.061-0.018-4.484-1.465-4.567-4.516c-0.081-2.916-0.059-5.838,0.007-8.756
		c0.056-2.441,1.439-4.055,3.808-4.1C78.425,74.119,85.848,74.209,93.385,74.209z"/>
	<path style="fill-rule:evenodd;clip-rule:evenodd;fill:#343434;" d="M177.353,91.676c-4.514-0.002-9.027,0.033-13.538-0.012
		c-3.26-0.035-4.729-1.391-4.847-4.547c-0.105-2.814-0.106-5.643-0.012-8.459c0.1-3,1.586-4.474,4.62-4.492
		c9.308-0.051,18.615-0.05,27.923,0.001c2.798,0.016,4.338,1.542,4.456,4.379c0.117,2.814,0.091,5.643,0.009,8.459
		c-0.091,3.092-1.66,4.619-4.792,4.658C186.566,91.721,181.959,91.68,177.353,91.676z M177.713,85.859
		c3.094,0,6.188-0.018,9.282,0.004c2.159,0.014,2.631-1.242,2.617-3.117c-0.016-1.877-0.792-2.785-2.682-2.781
		c-6.188,0.014-12.378,0.031-18.565-0.002c-2.095-0.012-2.773,1.088-2.786,3c-0.012,1.977,0.805,2.947,2.851,2.912
		C171.523,85.82,174.619,85.861,177.713,85.859z"/>
	<path style="fill-rule:evenodd;clip-rule:evenodd;fill:#343434;" d="M57.513,74.263c0.086,0.701,0.174,1.15,0.191,1.604
		c0.151,4.11,0.147,4.11-4.05,4.11c-4.236,0-8.472,0.029-12.708-0.018c-1.952-0.023-3.03,0.709-3.026,2.781
		c0.003,2.076,1.093,2.77,3.042,2.76c7.895-0.039,15.791-0.018,23.955-0.018c0,2.068,0,3.955,0,6.188c-1.105,0-2.112,0-3.118,0
		c-8.095,0-16.191,0.002-24.286,0c-5.158-0.002-6.185-1.059-6.193-6.336c-0.003-2.26-0.082-4.521,0.008-6.775
		c0.11-2.767,1.479-4.302,4.174-4.347c6.588-0.111,13.178-0.053,19.767-0.055C55.918,74.157,56.567,74.216,57.513,74.263z"/>
</g>
<rect x="-188.833" y="-165.333" style="fill:#343434;" width="66.667" height="106.667"/>
</svg>
