<?xml version="1.0" encoding="iso-8859-1"?>
<!-- Generator: Adobe Illustrator 16.0.0, SVG Export Plug-In . SVG Version: 6.00 Build 0)  -->
<!DOCTYPE svg PUBLIC "-//W3C//DTD SVG 1.1//EN" "http://www.w3.org/Graphics/SVG/1.1/DTD/svg11.dtd">
<svg version="1.1" id="Layer_1" xmlns="http://www.w3.org/2000/svg" xmlns:xlink="http://www.w3.org/1999/xlink" x="0px" y="0px"
	 width="240px" height="155px" viewBox="0 0 240 155" style="enable-background:new 0 0 240 155;" xml:space="preserve">
<g>
	<path style="fill-rule:evenodd;clip-rule:evenodd;fill:#343434;" d="M84.552,77.288c0.853-0.312,1.464-0.51,2.057-0.755
		c1.661-0.689,3.291-1.461,4.98-2.071c0.781-0.282,1.676-0.383,2.51-0.351c1.15,0.045,1.427,0.748,0.625,1.596
		c-0.666,0.704-1.458,1.318-2.277,1.842c-2.789,1.783-5.628,3.488-8.411,5.28c-0.461,0.298-0.956,0.837-1.064,1.344
		c-1.805,8.39-3.644,16.774-5.256,25.201c-0.548,2.864-0.535,5.843-0.684,8.772c-0.045,0.873-0.338,1.552-1.136,1.591
		c-0.807,0.04-1.331-0.595-1.252-1.483c0.328-3.702,0.405-7.451,1.071-11.092c1.271-6.952,2.88-13.843,4.347-20.76
		c0.099-0.465,0.182-0.934,0.268-1.379c-0.195-0.076-0.271-0.139-0.338-0.129c-2.209,0.313-3.843-1.031-3.641-3.303
		c0.119-1.337,0.774-2.627,1.197-3.935c0.123-0.381,0.422-0.764,0.391-1.125c-0.163-1.889-0.405-3.772-0.625-5.697
		c-0.132,0.315-0.354,0.699-0.458,1.112c-0.607,2.417-1.179,4.844-1.783,7.262c-0.157,0.631-0.304,1.287-0.602,1.856
		c-0.575,1.097-1.213,1.193-2.294,0.595c-0.345-0.191-0.892-0.344-1.211-0.205c-4.272,1.867-8.834,2.4-13.391,2.76
		c-3.201,0.253-6.445,0.163-9.655-0.025c-1.335-0.078-2.657-0.748-3.939-1.264c-1.742-0.699-2.637-2.143-2.954-3.92
		c-0.065-0.364,0.226-1.001,0.543-1.188c1.191-0.7,2.405-1.453,3.712-1.85c5.55-1.687,11.137-3.253,16.711-4.862
		c0.463-0.134,0.93-0.256,1.419-0.39c-0.424-1.315-0.815-2.542-1.217-3.766c-0.296-0.905,0.096-1.345,0.944-1.078
		c1.454,0.458,2.858,1.073,4.148,1.57c-0.765-1.493,0.028-3.058,0.542-4.599c0.43-1.29,0.208-2.461-0.104-3.828
		c-1.013,0.646-1.844,1.296-2.771,1.747c-4.231,2.06-8.75,3.216-13.384,3.811c-2.079,0.267-4.27,0.281-6.331-0.066
		c-3.493-0.587-5.99-2.549-6.65-6.266c-0.102-0.577,0.047-1.198,0.085-1.888c0.345,0.131,0.466,0.144,0.478,0.187
		c0.959,3.473,2.982,5.277,6.704,5.58c1.977,0.161,4.034,0.163,5.973-0.201c4.339-0.813,8.629-1.896,12.516-4.134
		c0.213-0.122,0.431-0.236,0.634-0.373c1.967-1.324,2.089-2.084,0.588-3.941c-2.131-2.637-4.311-5.236-6.399-7.906
		c-0.524-0.67-0.784-1.548-1.188-2.379c1.776-0.365,2.733,0.192,3.221,1.557c0.186,0.52,0.577,0.979,0.926,1.424
		c1.277,1.626,2.575,3.235,3.866,4.851c0.109-0.046,0.219-0.093,0.328-0.139c-0.041-0.324-0.044-0.657-0.127-0.969
		c-1.279-4.819-2.688-9.607-3.811-14.462c-0.668-2.89-0.9-5.881-1.297-8.831c-0.058-0.435-0.044-0.936,0.122-1.328
		c0.14-0.33,0.548-0.546,0.837-0.813c0.258,0.3,0.701,0.575,0.745,0.903c0.266,1.983,0.222,4.03,0.689,5.957
		c1.108,4.563,2.505,9.055,3.671,13.604c0.943,3.679,1.719,7.401,2.574,11.103c0.043,0.185,0.126,0.359,0.509,0.635
		c0.532-1.249,1.083-2.489,1.566-3.756c0.056-0.148-0.277-0.442-0.424-0.672c-0.302-0.472-0.622-0.934-0.893-1.423
		c-0.52-0.938-0.039-1.664,0.813-1.74c2.161-0.195,3.017-1.612,3.64-3.375c0.08-0.227,0.195-0.545,0.374-0.614
		c0.522-0.201,1.084-0.295,1.631-0.432c0.061,0.459,0.252,0.95,0.153,1.372c-0.154,0.657-0.506,1.268-0.847,2.07
		c0.667,0.112,1.167,0.209,1.671,0.277c1.984,0.265,3.978,0.468,5.948,0.807c0.756,0.13,1.29,0.088,1.87-0.47
		c1.684-1.623,3.672-2.208,5.98-1.569c1.792,0.497,2.146,1.599,1.027,2.936c-0.946-0.3-1.825-0.741-2.732-0.812
		c-0.608-0.048-1.258,0.428-1.952,0.893c3.227,1.095,5.513,3.398,8.07,5.855c0.086-0.784,0.092-1.252,0.194-1.699
		c0.472-2.055,0.936-4.114,1.478-6.151c0.226-0.851,0.859-1.205,1.795-1.092c0.958,0.116,1.536,0.615,1.668,1.511
		c0.309,2.101,0.5,4.22,0.822,6.318c0.135,0.875,0.426,1.739,0.753,2.567c0.292,0.739,0.879,0.963,1.575,0.457
		c1.963-1.427,3.732-2.997,4.755-5.31c0.957-2.163,2.104-4.243,3.19-6.348c0.184-0.356,0.426-0.837,0.744-0.937
		c0.559-0.176,1.197-0.103,1.801-0.133c-0.05,0.463,0.01,0.975-0.169,1.381c-1.299,2.949-2.733,5.841-3.931,8.829
		c-0.404,1.007-0.378,2.247-0.312,3.366c0.068,1.157,0.65,1.428,1.516,0.663c1.953-1.726,3.996-3.422,5.615-5.439
		c2.706-3.37,5.106-6.984,7.643-10.49c0.209-0.29,0.438-0.711,0.718-0.769c0.396-0.081,0.903,0.033,1.251,0.246
		c0.155,0.095,0.131,0.673,0.023,0.971c-0.436,1.198-0.877,2.36-0.485,3.688c0.179,0.607,0.356,0.92,1.06,0.841
		c4.183-0.476,8.37-0.906,12.553-1.391c0.617-0.072,1.211-0.353,2.088-0.62c-0.5-0.516-0.749-0.894-1.098-1.113
		c-2.174-1.365-4.318-2.792-6.574-4.008c-2.23-1.201-4.549-1.049-6.754,0.289c-0.443-1.923-0.213-2.575,1.566-2.916
		c1.309-0.251,2.827-0.284,4.067,0.135c3.632,1.225,6.802,3.308,9.724,5.81c1.595,1.367,0.736,4.089-1.053,4.347
		c-1.934,0.279-3.888,0.417-5.835,0.595c-2.358,0.217-4.719,0.406-7.076,0.625c-0.388,0.037-0.768,0.171-1.15,0.261
		c-0.013,0.122-0.026,0.244-0.038,0.366c0.785,0.177,1.562,0.4,2.354,0.525c7.105,1.124,14.231,2.148,21.103,4.394
		c0.812,0.265,1.613,0.56,2.745,0.955c-0.062-0.818,0.071-1.544-0.187-2.081c-2.188-4.536-2.946-9.427-3.564-14.336
		c-0.351-2.791-0.482-5.616-0.572-8.431c-0.038-1.203,0.246-2.423,0.453-3.624c0.096-0.562,0.143-1.386,1.088-1.056
		c0.86,0.3,1.119,1.155,0.738,1.802c-2.131,3.624-0.756,7.455-0.658,11.165c0.117,4.444,1.311,8.714,3.344,12.708
		c0.031,0.062,0.125,0.092,0.093,0.07c1.327-1.42,2.556-2.912,3.964-4.208c3.448-3.174,7.281-5.615,12.07-6.334
		c2.988-0.449,8.576,1.955,9.227,6.078c0.264,1.668,0.018,3.232-0.845,4.602c-3.892,6.18-9.275,10.489-16.356,12.471
		c-2.236,0.626-4.469,0.437-6.244-1.447c-0.094,0.07-0.188,0.141-0.281,0.211c1.133,2.33,2.246,4.672,3.438,6.973
		c0.109,0.212,0.809,0.342,1.086,0.207c1.208-0.589,2.34-1.336,3.549-1.925c0.385-0.188,0.922-0.064,1.389-0.083
		c-0.141,0.48-0.127,1.163-0.447,1.405c-1.291,0.978-2.687,1.819-4.256,2.851c4.207,6.148,7.149,13.23,12.369,18.833
		c-1.211,1.301-1.477,1.342-2.547,0.075c-1.346-1.593-2.605-3.259-4.569-4.069c-1.244,3.42-2.484,6.83-3.769,10.361
		c1.265-0.287,2.478-0.611,3.709-0.832c1.848-0.332,3.71-0.575,5.559-0.898c0.296-0.052,0.757-0.282,0.799-0.497
		c0.668-3.42,3.018-5.624,5.717-7.345c2.281-1.453,4.82-2.574,7.371-3.499c1.162-0.422,2.633-0.088,3.949,0.038
		c0.854,0.082,1.088,0.73,0.638,1.438c-0.478,0.753-0.977,1.545-1.642,2.112c-1.458,1.242-3.025,2.355-4.553,3.517
		c-0.34,0.259-0.698,0.495-1.315,0.929c3.545-0.701,6.724-1.413,9.935-1.921c1.256-0.198,2.611-0.079,3.875,0.147
		c1.51,0.27,1.782,1.016,0.7,2.079c-1.8,1.769-3.677,3.491-5.701,4.989c-3.053,2.26-6.261,4.31-9.4,6.452
		c-0.229,0.156-0.442,0.339-0.787,0.604c0.419,0.32,0.755,0.593,1.108,0.844c5.184,3.684,10.102,7.691,13.908,12.832
		c1.662,2.244,2.906,4.808,4.25,7.275c0.449,0.826,0.585,1.764-0.209,2.617c-0.822,0.886-1.764,0.735-2.72,0.448
		c-3.435-1.03-6.087-3.288-8.657-5.641c-4.99-4.565-10.157-8.898-16.172-12.067c-2.38-1.255-4.912-2.219-7.359-3.348
		c-0.773-0.355-1.371-0.183-2.029,0.297c-3.004,2.189-6.035,4.342-9.061,6.502c-0.531,0.379-1.061,0.773-1.635,1.081
		c-0.742,0.397-1.555,0.95-2.357,0.194c-0.854-0.805-1.057-1.707-0.338-2.805c1.434-2.188,2.77-4.438,4.147-6.662
		c0.253-0.408,0.508-0.817,0.926-1.488c-1.586-0.202-2.956-0.377-4.26-0.543c-0.329,1.268-0.5,2.401-0.921,3.433
		c-0.584,1.427-1.203,1.66-2.727,1.058c-2.051-0.813-4.055-1.744-6.078-2.625c-0.188-0.082-0.367-0.18-0.557-0.255
		c-0.951-0.372-2.007-1.177-2.824-0.981c-0.758,0.181-1.279,1.416-1.875,2.211c-1.178,1.572-1.263-0.378-2.069-0.445
		c0.627-1.068,1.154-1.965,1.645-2.799c-0.649-0.791-1.209-1.474-1.929-2.352c-0.938,1.037-1.881,2.028-2.762,3.071
		c-0.949,1.124-1.807,2.326-2.777,3.429c-0.252,0.286-1.051,0.549-1.135,0.446c-0.408-0.506-1.28-0.867-0.732-1.822
		c0.729-1.275,1.457-2.564,2.037-3.911c0.533-1.239,0.873-2.563,1.377-4.089c-1.664,0.367-2.58,0.907-3.096,2.239
		c-0.896,2.323-1.988,4.57-3.008,6.844c-0.128,0.285-0.318,0.541-0.535,0.902c-0.872-0.756-1.531-1.375-0.931-2.598
		c0.274-0.559,0.194-1.291,0.274-1.945c-0.111-0.049-0.223-0.098-0.336-0.146c-0.637,0.666-1.254,1.352-1.918,1.991
		c-0.439,0.424-0.915,0.825-1.426,1.155c-0.935,0.604-2.037,1.348-3.043,0.561c-1.021-0.798-2.021-1.861-1.702-3.421
		c0.222-1.081,0.053-2.007-0.978-2.911c-0.501,0.773-0.939,1.488-1.417,2.178c-2.396,3.46-3.217,7.352-3.263,11.488
		c-0.011,0.977-0.313,1.949-0.521,3.158c-1.075-0.813-1.793-1.488-1.737-2.557c0.11-2.109,0.301-4.215,0.491-6.318
		c0.079-0.875,0.241-1.743,0.417-2.98c-0.875,0.582-1.405,1.021-2.004,1.32c-2.337,1.164-4.685,2.311-7.057,3.402
		c-0.64,0.293-1.134,0.557-1.195,1.344c-0.031,0.395-0.146,0.85-0.384,1.148c-0.399,0.502-1.017,1.333-1.382,1.257
		c-0.772-0.161-1.53-0.694-1.662-1.728c-0.053-0.406-0.343-0.913-0.681-1.131c-1.507-0.972-2.194-2.973-1.335-4.552
		c0.661-1.215,1.426-2.394,2.29-3.474c0.884-1.104,1.07-2.316,1.081-3.854c-1.935,1.199-3.752,2.277-5.514,3.439
		c-0.784,0.518-1.45,1.21-2.179,1.813c-0.518,0.428-0.948,0.295-1.347-0.21c-0.898-1.135-0.801-2.595,0.416-3.358
		c2.629-1.65,5.298-3.244,8.006-4.76c0.977-0.547,1.469-1.167,1.675-2.304c1.492-8.204,3.127-16.382,4.594-24.59
		c0.602-3.366,0.923-2.91-2.496-2.89c-2.86,0.017-5.72,0.191-8.577,0.334c-1.604,0.08-4.148,2.485-4.378,4.063
		C84.984,74.417,84.784,75.733,84.552,77.288z M97.314,105.416c3.833-3.367,7.564-6.814,10.165-11.232
		c0.775-1.317,1.284-2.798,1.845-4.23c0.275-0.703,0.721-1.058,1.383-0.768c0.317,0.139,0.536,0.653,0.656,1.043
		c0.103,0.332,0.033,0.73-0.012,1.094c-0.365,2.918-0.749,5.832-1.111,8.75c-0.152,1.225-0.265,2.455-0.396,3.684
		c0.688-0.551,1.074-1.219,1.568-1.793c1.06-1.233,2.054-2.566,3.299-3.584c1.438-1.176,2.794-0.451,2.913,1.364
		c0.013,0.194,0.049,0.388,0.084,0.653c2.333-0.487,4.69-1.691,6.853,0.847c0.544-0.91,1.2-1.67,1.479-2.55
		c0.568-1.779,0.91-3.63,1.4-5.437c0.096-0.354,0.441-0.641,0.672-0.958c0.391,0.328,1.063,0.615,1.115,0.992
		c0.122,0.867-0.006,1.783-0.126,2.668c-0.102,0.742-0.337,1.467-0.517,2.215c3.354,0.264,3.354,0.264,3.021,4.48
		c1.082-0.783,2.095-1.696,3.261-2.326c3.161-1.708,6.444-3.193,9.573-4.957c4.088-2.303,8.111-4.726,12.075-7.234
		c1.043-0.66,1.767-1.826,2.747-2.88c-0.563-0.272-0.8-0.425-1.059-0.509c-7.42-2.438-15.151-3.289-22.825-4.419
		c-0.289-0.043-0.797,0.389-0.966,0.721c-0.607,1.192-0.986,2.515-1.691,3.638c-0.759,1.211-2.285,1.381-3.139,0.316
		c-0.901-1.121-1.91-2.427-2.117-3.77c-0.281-1.803-0.657-3.743,0.256-5.602c0.498-1.015,0.678-2.187,1.002-3.288
		c-0.096-0.044-0.191-0.089-0.287-0.134c-0.298,0.362-0.59,0.729-0.895,1.087c-2.537,2.987-5.045,6.001-7.642,8.935
		c-0.537,0.606-1.375,0.995-2.144,1.324c-0.319,0.136-0.949-0.016-1.21-0.27c-0.823-0.801-1.03-2.455-0.4-3.494
		c0.845-1.394,1.817-2.709,2.733-4.061c0.2-0.296,0.391-0.598,0.586-0.898c-2.405,0.923-4.574,2.058-6.792,3.086
		c-1.402,0.65-2.85,1.233-4.329,1.675c-0.912,0.271-1.99,0.159-2.438-0.868c-0.634-1.452-0.902-2.951,0.32-4.327
		c0.839-0.945,1.594-1.965,2.418-2.923c0.602-0.7,1.257-1.355,2.046-2.199c-1.656-0.153-3.063-0.306-4.473-0.409
		c-2.86-0.21-2.823-0.192-3.33,2.63c-1.365,7.599-2.767,15.193-4.146,22.789c-0.098,0.54-0.12,1.094-0.195,1.82
		c0.797-0.316,1.381-0.611,2-0.777c0.62-0.167,1.273-0.276,1.913-0.282c0.815-0.008,1.093,0.427,0.991,1.284
		c-0.186,1.568-0.84,2.892-1.836,4.068C100.192,102.082,98.749,103.746,97.314,105.416z M117.079,67.539
		c0.013,0.111,0.025,0.222,0.039,0.334c2.362,0.412,4.725,0.82,7.085,1.238c0.735,0.13,1.495,0.207,2.192,0.45
		c0.771,0.268,1.346,0.36,1.9-0.432c0.911-1.304,1.885-2.573,2.926-3.775c0.314-0.363,1.173-0.775,1.38-0.622
		c0.912,0.675,1.943,0.378,2.892,0.606c2.301,0.554,4.63,1.044,6.869,1.795c1.525,0.511,3.01,1.284,4.346,2.187
		c1.404,0.948,1.598,2.295,0.88,3.634c-0.103,0.192-0.163,0.407-0.274,0.694c3.883,0.253,7.588-0.028,11.201-1.134
		c0-0.191,0.025-0.28-0.004-0.344c-0.223-0.482-0.432-0.973-0.691-1.434c-1.992-3.526-3.494-7.194-3.592-11.333
		c-0.01-0.389-0.598-0.983-1.025-1.109c-3.639-1.068-7.305-2.042-10.957-3.064c-0.693-0.194-0.927,0.164-1.335,0.659
		c-0.812,0.983-1.808,1.822-2.772,2.671c-0.655,0.577-1.489,0.976-2.065,1.615c-2.496,2.77-5.325,4.955-9.128,5.545
		c-2.676,0.416-5.004-0.684-6.082-2.688c-1.296-2.414-1.456-4.889-0.687-7.474c0.192-0.648,0.362-1.304,0.542-1.957
		c-0.471,0.191-0.709,0.503-0.972,0.792c-1.844,2.018-3.655,4.067-5.563,6.022c-0.608,0.624-1.428,1.114-2.24,1.449
		c-1.419,0.585-2.446,0.096-3.091-1.28c-0.39-0.831-0.772-1.667-1.179-2.546c-0.728,0.572-1.339,1.12-2.015,1.569
		c-1.861,1.237-3.321,0.783-4.509-1.088c-1.365-2.151-1.465-4.547-1.707-6.94c-0.049-0.491-0.163-0.975-0.28-1.655
		c-1.778,2.878-1.431,9.655,0.483,12.11c0.133,0.17,0.394,0.293,0.615,0.335c1.746,0.336,2.498,1.527,2.819,3.146
		c0.071,0.359,0.302,0.953,0.51,0.976c1.167,0.129,2.418,0.383,3.516,0.104c3.759-0.954,7.47-2.095,11.188-3.204
		c0.826-0.247,1.91-0.528,2.181,0.264c0.198,0.583-0.582,1.521-0.98,2.273c-0.097,0.184-0.414,0.245-0.617,0.381
		C118.273,66.712,117.677,67.127,117.079,67.539z M166.912,107.602c0.963,0.402,1.713,0.707,2.457,1.023
		c6.998,2.986,13.029,7.409,18.67,12.447c2.521,2.254,5.164,4.38,7.84,6.45c0.771,0.597,1.828,0.864,2.793,1.156
		c0.768,0.233,1.107-0.222,0.846-0.952c-0.271-0.766-0.604-1.521-1.005-2.227c-4.295-7.578-10.529-13.25-17.752-17.928
		c-0.313-0.203-0.923-0.138-1.313,0.014c-0.689,0.268-1.315,0.699-1.904,1.025c-1.269-1.412-0.524-2.172,0.658-2.768
		c-1.321-1.381-2.546-2.658-3.765-3.932C171.974,103.774,169.543,105.612,166.912,107.602z M160.367,85.486
		c-0.434,2.399-1.924,3.762-3.574,4.914c-1.77,1.236-3.623,2.371-5.516,3.412c-3.645,1.999-7.331,3.922-11.025,5.828
		c-0.809,0.416-1.106,0.873-0.922,1.802c0.111,0.564-0.074,1.215-0.229,1.8c-0.451,1.713-0.412,1.797,1.567,2.17
		c-0.761-1.006-0.104-1.226,0.67-1.354c0.603-0.099,1.215-0.142,1.814-0.256c1.694-0.321,3.385-0.667,5.173-1.021
		c-0.66-1.05-1.164-1.848-1.711-2.715c1.533-0.209,2.143,0.03,3.131,1.416c0.441,0.618,0.854,0.714,1.535,0.526
		c2.598-0.715,5.213-1.364,7.809-2.085c0.393-0.109,0.859-0.382,1.054-0.717c1.991-3.444,3.644-7.037,4.38-10.979
		c0.063-0.336-0.149-0.944-0.414-1.081C162.965,86.551,161.752,86.084,160.367,85.486z M70.191,79.54
		c-1.831-2.366-3.355-4.376-4.941-6.338c-0.194-0.239-0.746-0.361-1.078-0.29c-6.634,1.429-13.215,3.054-19.509,5.654
		c-1.409,0.58-1.464,1.024-0.28,2.023c1.678,1.417,3.726,2.021,5.823,1.883c4.679-0.309,9.354-0.76,14.006-1.346
		C66.121,80.887,67.967,80.148,70.191,79.54z M164.494,85.166c0.125-0.068,0.252-0.139,0.377-0.207
		c-0.662-1.9-1.201-3.855-2.021-5.684c-0.664-1.479-1.715-2.78-2.502-4.21c-0.423-0.766-0.875-0.844-1.668-0.622
		c-3.814,1.069-7.707,1.401-11.655,1.025c-0.935-0.089-1.891-0.364-2.8-0.25c-2.794,0.35-5.574,0.826-8.349,1.311
		c-0.344,0.061-0.626,0.476-0.937,0.726c0.305,0.254,0.576,0.667,0.919,0.737c1.96,0.404,3.934,0.739,5.906,1.076
		c6.083,1.041,12.17,2.072,18.001,4.188C161.363,83.836,162.919,84.527,164.494,85.166z M187.859,87.792
		c-0.416-0.083-0.498-0.12-0.573-0.109c-0.201,0.027-0.405,0.059-0.599,0.117c-3.957,1.204-7.4,3.249-10.145,6.366
		c-0.605,0.689-1.004,1.57-1.443,2.393c-0.304,0.57-0.275,1.08,0.457,1.376c0.631,0.255,0.91,0.776,0.514,1.379
		c-0.692,1.048-0.293,1.832,0.477,2.569c0.914,0.874,1.807,1.776,2.779,2.581c0.264,0.218,0.896,0.312,1.17,0.147
		c5.057-3.026,9.938-6.307,14.338-10.252c0.143-0.128,0.195-0.356,0.378-0.704c-0.712,0.063-1.245,0.056-1.755,0.161
		c-2.396,0.5-4.793,1.01-7.182,1.554c-2.147,0.489-4.277,1.058-6.429,1.528c-0.865,0.189-1.421-0.184-1.746-1.103
		c-0.319-0.903,0.226-1.148,0.772-1.519c2.266-1.537,4.535-3.07,6.777-4.643C186.369,89.131,187.006,88.51,187.859,87.792z
		 M168.656,46.323c0.673,0.062,1.095,0.04,1.48,0.146c3.658,1.011,5.203,2.893,2.486,6.291c-2.59,3.237-5.82,5.598-9.904,6.626
		c-0.876,0.221-1.787,0.304-2.822,0.473c0.895,0.835,1.729,1.495,2.408,2.289c0.537,0.627,1.004,0.765,1.78,0.48
		c4.214-1.544,7.84-3.989,11.013-7.125c1.409-1.393,2.486-2.994,3.071-4.938c0.484-1.607,0.048-2.846-1.222-3.777
		C174.408,44.922,171.736,44.27,168.656,46.323z M134.449,58.872c-0.616-0.344-1.037-0.584-1.462-0.815
		c-1.903-1.032-3.435-2.474-4.647-4.256c-0.557-0.817-3.654-1.73-4.514-1.297c-0.134,0.068-0.27,0.208-0.324,0.346
		c-1.052,2.674-2.057,5.356-1.258,8.314c0.506,1.871,1.769,2.828,3.686,2.655C129.449,63.501,132.021,61.533,134.449,58.872z
		 M70.589,64.336c0.167,0.09,0.335,0.181,0.502,0.271c0.432-0.265,0.882-0.502,1.292-0.799c2.227-1.614,4.478-3.149,7.333-3.457
		c0.291-0.031,0.643-0.529,0.77-0.881c0.784-2.183,1.515-4.385,2.254-6.584c0.096-0.287,0.14-0.591,0.28-1.203
		c-2.81,0.216-5.405,0.392-7.991,0.648c-0.293,0.029-0.649,0.468-0.791,0.797c-1.084,2.51-2.213,5.007-3.134,7.577
		C70.699,61.833,70.747,63.121,70.589,64.336z M159.118,105.023c1.839,0.6,3.494,1.16,5.167,1.66c0.262,0.078,0.673-0.031,0.9-0.205
		c2.498-1.9,4.986-3.813,7.438-5.773c0.354-0.284,0.492-0.838,0.73-1.268c-0.45-0.092-0.932-0.336-1.346-0.253
		c-3.433,0.692-6.855,1.437-10.273,2.198c-0.281,0.063-0.585,0.316-0.748,0.566C160.367,102.9,159.803,103.887,159.118,105.023z
		 M92.152,54.981c-0.508,1.753-0.854,3.52-1.532,5.149c-0.937,2.255-2.447,4.139-4.457,5.593c-0.244,0.176-0.318,0.586-0.47,0.889
		c0.298,0.143,0.602,0.416,0.892,0.403c0.555-0.026,1.206-0.065,1.636-0.36c2.702-1.852,5.468-3.561,8.619-4.425
		C97.039,59.213,94.167,55.992,92.152,54.981z M85.669,63.56c2.188-2.101,4.028-4.45,3.917-7.803
		c-0.048-1.463-1.399-2.997-2.836-3.282c-0.237-0.047-0.698,0.125-0.771,0.308c-0.961,2.409-1.889,4.833-2.771,7.272
		c-0.099,0.274,0.037,0.748,0.233,0.994C84.079,61.851,84.796,62.59,85.669,63.56z M107.292,77.151
		c1.635,0.333,11.393-4.256,13.958-6.492c-2.05-0.309-3.915-0.65-5.794-0.835c-0.572-0.056-1.332,0.155-1.757,0.528
		c-1.809,1.585-3.554,3.247-5.257,4.947C107.958,75.78,107.695,76.482,107.292,77.151z M158.963,57.881
		c1.374-0.462,2.745-0.929,4.119-1.384c2.444-0.809,4.576-2.144,6.418-3.92c0.637-0.614,1.149-1.365,1.668-2.09
		c0.412-0.578,0.208-1.15-0.477-1.117c-1.18,0.058-2.41,0.174-3.503,0.579c-0.866,0.321-1.544,1.132-2.332,1.688
		C162.508,53.293,160.533,55.317,158.963,57.881z M68.704,68.935c0.536,0.14,1.041,0.396,1.532,0.372
		c0.808-0.041,1.606-0.377,2.411-0.386c2.399-0.025,4.03-1,4.866-3.339c0.335-0.939,1.486-1.104,2.196-0.366
		c0.385,0.399,0.601,1.045,0.699,1.614c0.107,0.621,0.333,0.875,0.948,0.786c0.484-0.071,0.982-0.087,1.451-0.213
		c0.224-0.06,0.464-0.288,0.558-0.501c0.041-0.094-0.23-0.427-0.418-0.503c-1.528-0.611-2.186-1.904-2.583-3.349
		c-0.202-0.736-0.544-0.997-1.21-0.682c-1.43,0.676-2.919,1.274-4.239,2.128C72.84,65.834,70.888,67.358,68.704,68.935z
		 M146.02,71.476c-0.707-0.495-1.18-0.992-1.756-1.199c-2.064-0.742-4.141-1.479-6.259-2.045c-3.218-0.861-3.341-0.722-2.966,2.586
		c0.035,0.323,0.427,0.799,0.73,0.868c2.107,0.481,4.223,0.944,6.358,1.271C143.52,73.169,144.74,72.599,146.02,71.476z
		 M162.449,108.424c-0.031-0.121-0.062-0.242-0.092-0.364c-1.275-0.349-2.539-0.761-3.835-1.005
		c-0.338-0.064-0.897,0.302-1.144,0.629c-0.924,1.236-1.783,2.525-2.627,3.82c-0.67,1.029-1.281,2.096-1.918,3.146
		c0.087,0.076,0.174,0.152,0.262,0.228C156.213,112.727,159.331,110.575,162.449,108.424z M122.713,102.056
		c-1.378-0.45-4.59,0.067-5.325,1.12c-0.666,0.951-0.822,2.323-0.983,3.539c-0.109,0.828,0.614,0.76,1.102,0.446
		c0.856-0.55,1.744-1.101,2.451-1.815C120.932,104.36,121.75,103.222,122.713,102.056z M138.104,54.387
		c-2.884-0.466-5.406-0.873-7.929-1.281c-0.045,0.128-0.09,0.256-0.136,0.384c1.413,1.603,3.002,2.979,5.136,3.583
		c0.281,0.08,0.762-0.063,0.964-0.278C136.77,56.128,137.311,55.377,138.104,54.387z M101.003,66.485
		c0.11-1.555-0.42-2.265-1.783-2.317c-2.363-0.092-4.362,0.925-6.238,2.317C95.632,66.485,98.283,66.485,101.003,66.485z
		 M67.374,72.373c1.464,1.9,2.876,3.735,4.375,5.682c0.982-1.028,1.12-1.975,0.468-2.912c-0.624-0.895-1.408-1.678-2.114-2.516
		C69.374,71.765,68.535,71.765,67.374,72.373z M106.023,105.535c-2.294-0.451-8.188,2.713-9.313,4.9
		C100.049,109.264,103.232,107.934,106.023,105.535z M142.611,105.98c-0.021,0.141-0.043,0.283-0.064,0.424
		c1.76,0.723,3.511,1.469,5.283,2.156c1.003,0.39,1.117-0.416,1.146-1.061c0.031-0.657,0.631-1.719-0.756-1.711
		C146.352,105.798,144.481,105.911,142.611,105.98z M107.717,103.043c0.162-1.729,0.316-3.377,0.471-5.025
		c-0.1-0.021-0.2-0.04-0.3-0.061c-1.362,1.65-2.726,3.301-4.201,5.086C105.098,103.043,106.303,103.043,107.717,103.043z
		 M129.531,79.136c-0.163,1.494-0.013,2.706,0.705,3.821c0.38,0.59,0.875,0.707,1.231,0.085c0.545-0.953,0.956-1.983,1.5-3.14
		C131.652,79.608,130.673,79.391,129.531,79.136z M118.572,80.325c0.081,0.079,0.162,0.157,0.242,0.235
		c2.475-2.869,4.948-5.737,7.587-8.797C124.963,71.726,119.667,77.834,118.572,80.325z M79.307,79.129
		c-0.265,0.634-0.63,1.2-0.719,1.807c-0.087,0.596,0.106,1.232,0.176,1.851c0.563-0.15,1.292-0.136,1.648-0.491
		c0.487-0.487,0.789-1.233,0.954-1.921c0.046-0.194-0.643-0.601-1.033-0.852C80.075,79.355,79.749,79.293,79.307,79.129z
		 M83.289,70.049c-0.094-0.157-0.188-0.314-0.283-0.472c-0.893,0.247-2.225,0.225-2.577,0.802c-0.545,0.891-0.42,2.191-0.579,3.317
		c0.132,0.044,0.264,0.087,0.396,0.131C81.193,72.514,82.862,71.778,83.289,70.049z M75.172,70.735
		c-1.328,0.231-2.285,0.397-3.462,0.602c0.904,1.064,1.613,1.9,2.507,2.952C74.563,73.002,74.828,72.014,75.172,70.735z
		 M158.094,102.275c-1.807,0.463-3.496,0.896-5.186,1.329c0.775,0.367,1.529,0.483,2.278,0.624
		C157.064,104.577,157.355,104.402,158.094,102.275z M130.246,75.28c1.099-0.236,1.965-0.379,2.8-0.631
		c0.214-0.064,0.435-0.463,0.451-0.721s-0.146-0.651-0.354-0.78c-1.33-0.817-2.126-0.501-2.579,0.969
		C130.48,74.385,130.415,74.657,130.246,75.28z M133.463,71.165c0-1.467,0-2.833,0-4.199c-0.098-0.017-0.196-0.033-0.294-0.049
		c-0.432,1.262-0.863,2.524-1.335,3.902C132.48,70.955,132.934,71.052,133.463,71.165z M82.496,75.348
		c-0.12-0.093-0.24-0.187-0.359-0.28c-0.442,0.71-0.914,1.406-1.282,2.153c-0.035,0.071,0.572,0.459,1.079,0.854
		C82.161,76.972,82.328,76.16,82.496,75.348z M159.911,62.803c-0.672-0.718-1.345-1.437-2.216-2.368
		C157.816,62.191,158.301,62.717,159.911,62.803z M137.223,101.882c-0.104-0.065-0.206-0.13-0.309-0.194
		c-0.357,0.328-0.812,0.605-1.022,1.01c-0.078,0.15,0.415,0.598,0.868,1.205C136.974,102.969,137.098,102.426,137.223,101.882z"/>
	<path style="fill-rule:evenodd;clip-rule:evenodd;fill:#343434;" d="M107.44,40.218c-0.483-0.546-1.169-1.015-1.411-1.652
		c-0.604-1.592-1.109-3.238-1.46-4.903c-0.4-1.892-0.053-2.181,1.686-1.932c0.267-0.481,0.513-0.928,0.759-1.374
		c0.53,0.37,1.188,0.642,1.561,1.131c0.673,0.885,1.208,1.883,1.731,2.871c0.198,0.375,0.236,0.847,0.29,1.282
		c0.063,0.503,0.091,1.015,0.081,1.522c-0.007,0.333-0.107,0.666-0.166,0.999c-0.334-0.147-0.742-0.221-0.985-0.46
		c-0.324-0.32-0.519-0.77-0.858-1.302c-0.231,1.343-0.431,2.502-0.63,3.661C107.837,40.114,107.639,40.166,107.44,40.218z"/>
</g>
</svg>
